<?xml version="1.0" encoding="utf-8"?>
<!-- Generator: Adobe Illustrator 15.1.0, SVG Export Plug-In . SVG Version: 6.00 Build 0)  -->
<!DOCTYPE svg PUBLIC "-//W3C//DTD SVG 1.1//EN" "http://www.w3.org/Graphics/SVG/1.1/DTD/svg11.dtd">
<svg version="1.1" id="Layer_1" xmlns="http://www.w3.org/2000/svg" xmlns:xlink="http://www.w3.org/1999/xlink" x="0px" y="0px"
	 width="41.85px" height="24.299px" viewBox="0 0 41.85 24.299" enable-background="new 0 0 41.85 24.299" xml:space="preserve">
<g>
	<path fill="#FFFFFF" d="M11.969,22.353v-16.8H8.16V4.082c2.309-0.149,3.987-0.779,4.35-2.729h1.77v21H11.969z"/>
	<path fill="#FFFFFF" d="M18.24,22.353c0.27-5.311,2.76-7.529,6.75-10.261c3.719-2.52,4.528-3.54,4.528-5.46
		c0-2.158-1.528-3.51-4.289-3.51c-2.399,0-3.78,0.811-5.102,1.95l-1.351-1.71c1.712-1.38,3.511-2.34,6.541-2.34
		c3.72,0,6.511,1.74,6.511,5.489c0,3.12-1.441,4.38-5.25,6.99c-4.261,2.91-5.281,4.38-5.67,6.63h11.129v2.22H18.24V22.353z"/>
</g>
</svg>
