<?xml version="1.0" encoding="utf-8"?>
<!-- Generator: Adobe Illustrator 15.1.0, SVG Export Plug-In . SVG Version: 6.00 Build 0)  -->
<!DOCTYPE svg PUBLIC "-//W3C//DTD SVG 1.1//EN" "http://www.w3.org/Graphics/SVG/1.1/DTD/svg11.dtd">
<svg version="1.1" id="Layer_1" xmlns="http://www.w3.org/2000/svg" xmlns:xlink="http://www.w3.org/1999/xlink" x="0px" y="0px"
	 width="32.311px" height="24.299px" viewBox="0 0 32.311 24.299" enable-background="new 0 0 32.311 24.299" xml:space="preserve">
<g>
	<path fill="#FFFFFF" d="M15.18,22.683c-2.67,0-5.16-1.38-6.51-2.91l1.561-1.56c1.32,1.41,3.029,2.369,5.07,2.369
		c3.42,0,5.039-1.5,5.039-4.199c0-2.61-2.01-3.961-4.98-3.961h-1.38v-2.01h1.439c2.729,0,4.051-1.5,4.051-3.719
		c0-2.01-1.111-3.57-4.32-3.57c-1.77,0-3.18,0.811-4.229,1.92l-1.469-1.5c1.198-1.26,3.237-2.52,5.76-2.52
		c3.688,0,6.567,1.77,6.567,5.369c0,2.551-1.17,3.99-2.969,4.92c2.039,0.449,3.84,1.919,3.84,5.01
		C22.65,20.312,19.801,22.683,15.18,22.683z"/>
</g>
</svg>
