<?xml version="1.0" encoding="utf-8"?>
<!-- Generator: Adobe Illustrator 15.1.0, SVG Export Plug-In . SVG Version: 6.00 Build 0)  -->
<!DOCTYPE svg PUBLIC "-//W3C//DTD SVG 1.1//EN" "http://www.w3.org/Graphics/SVG/1.1/DTD/svg11.dtd">
<svg version="1.1" id="Layer_1" xmlns="http://www.w3.org/2000/svg" xmlns:xlink="http://www.w3.org/1999/xlink" x="0px" y="0px"
	 width="144.623px" height="77.509px" viewBox="0 0 144.623 77.509" enable-background="new 0 0 144.623 77.509"
	 xml:space="preserve">
<g>
	<g>
		<path fill="#FFFFFF" d="M61.343,6.631V25.5h-2.34V6.631h-6.18v-2.13h14.7v2.13H61.343z"/>
		<path fill="#FFFFFF" d="M79.523,12.091c-0.63-0.36-1.32-0.601-2.37-0.601c-2.19,0-3.42,1.771-3.42,4.771V25.5h-2.25V9.751h2.25
			V11.7c0.72-1.26,2.22-2.279,3.9-2.279c1.17,0,1.919,0.149,2.46,0.39L79.523,12.091z"/>
		<path fill="#FFFFFF" d="M95.603,18.391H85.104c0.209,3.359,1.799,5.489,4.379,5.489c1.83,0,2.91-0.54,4.35-1.5L94.883,24
			c-1.891,1.2-3.27,1.83-5.641,1.83c-2.879,0-6.389-2.1-6.389-8.279c0-5.01,2.76-8.13,6.51-8.13c4.109,0,6.329,3.239,6.329,7.739
			C95.692,17.7,95.662,18.03,95.603,18.391z M89.333,11.37c-2.341,0-3.96,1.681-4.229,5.19h8.489
			C93.412,13.5,92.093,11.37,89.333,11.37z"/>
		<path fill="#FFFFFF" d="M109.763,25.5v-9.21c0-3.39-1.2-4.92-3.72-4.92c-2.189,0-3.9,1.471-3.9,4.92v9.21h-2.25V9.751h2.25v1.92
			c0.9-1.32,2.371-2.25,4.351-2.25c3.329,0,5.52,1.949,5.52,6.479v9.6H109.763z"/>
		<path fill="#FFFFFF" d="M128.812,18.391h-10.5c0.21,3.359,1.8,5.489,4.38,5.489c1.829,0,2.909-0.54,4.35-1.5l1.05,1.62
			c-1.89,1.2-3.27,1.83-5.64,1.83c-2.88,0-6.39-2.1-6.39-8.279c0-5.01,2.76-8.13,6.51-8.13c4.109,0,6.33,3.239,6.33,7.739
			C128.902,17.7,128.872,18.03,128.812,18.391z M122.543,11.37c-2.341,0-3.961,1.681-4.23,5.19h8.49
			C126.622,13.5,125.303,11.37,122.543,11.37z"/>
		<path fill="#FFFFFF" d="M137.452,25.83c-2.16,0-4.05-0.811-5.55-2.01l1.32-1.65c1.26,1.11,2.729,1.74,4.289,1.74
			c2.16,0,3.18-0.9,3.18-2.43c0-1.29-0.93-2.01-3.719-3.21c-3.15-1.351-4.471-2.311-4.471-4.83c0-2.399,2.07-4.02,4.92-4.02
			c2.16,0,3.84,0.689,5.04,1.68l-1.261,1.65c-1.229-0.96-2.249-1.41-3.93-1.41c-1.649,0-2.609,0.81-2.609,1.949
			c0,1.32,0.811,1.86,3.48,3.061c2.969,1.35,4.709,2.22,4.709,5.04C142.852,24.48,140.182,25.83,137.452,25.83z"/>
	</g>
</g>
<g>
	<g>
		<path fill="#FFFFFF" d="M61.553,63.469h-5.1v8.25h-2.34V50.72h7.86c3.81,0,6.689,2.01,6.689,6.27
			C68.663,61.159,65.753,63.469,61.553,63.469z M61.883,52.85h-5.43v8.489h5.13c3.21,0,4.74-1.47,4.74-4.26
			C66.323,54.38,64.763,52.85,61.883,52.85z"/>
		<path fill="#FFFFFF" d="M73.704,53.149c-0.93,0-1.65-0.72-1.65-1.59c0-0.9,0.72-1.62,1.65-1.62c0.84,0,1.56,0.72,1.56,1.62
			C75.263,52.43,74.543,53.149,73.704,53.149z M72.533,71.719V55.97h2.25v15.749H72.533z"/>
		<path fill="#FFFFFF" d="M86.604,72.049c-1.98,0-3.33-0.84-4.44-2.1v6.3l-2.25,1.26V55.97h2.25v1.92c1.11-1.2,2.61-2.25,4.739-2.25
			c3.15,0,5.641,2.399,5.641,7.949C92.543,69.169,89.902,72.049,86.604,72.049z M86.333,57.589c-1.681,0-3.06,0.9-4.17,2.28v7.859
			c0.87,1.32,2.399,2.37,4.26,2.37c2.61,0,3.899-2.25,3.899-6.479C90.322,59.659,88.822,57.589,86.333,57.589z"/>
		<path fill="#FFFFFF" d="M105.713,71.719v-1.92c-1.11,1.2-2.67,2.25-4.92,2.25c-2.461,0-5.04-1.23-5.04-5.04
			c0-3.54,2.909-5.04,6.03-5.04c1.59,0,2.999,0.391,3.93,0.9v-1.86c0-2.34-1.11-3.479-3.42-3.479c-1.65,0-3,0.45-4.29,1.2
			l-0.841-1.83c1.381-0.75,3.24-1.26,5.28-1.26c3.39,0,5.521,1.439,5.521,5.1v10.979H105.713z M105.713,64.669
			c-1.021-0.57-2.131-0.899-4.051-0.899c-2.31,0-3.689,1.109-3.689,3.09c0,2.34,1.29,3.359,3.21,3.359c2.04,0,3.569-1.05,4.53-2.37
			V64.669z"/>
		<path fill="#FFFFFF" d="M117.202,72.049c-2.16,0-4.05-0.811-5.55-2.01l1.32-1.65c1.26,1.11,2.729,1.74,4.289,1.74
			c2.16,0,3.18-0.9,3.18-2.43c0-1.29-0.93-2.01-3.719-3.21c-3.15-1.351-4.471-2.311-4.471-4.83c0-2.399,2.07-4.02,4.92-4.02
			c2.16,0,3.84,0.689,5.04,1.68l-1.261,1.65c-1.229-0.96-2.249-1.41-3.93-1.41c-1.649,0-2.609,0.81-2.609,1.949
			c0,1.32,0.811,1.86,3.48,3.061c2.969,1.35,4.709,2.22,4.709,5.04C122.602,70.699,119.932,72.049,117.202,72.049z"/>
	</g>
</g>
<line fill="none" stroke="#FFF200" stroke-width="4" stroke-miterlimit="10" x1="44.33" y1="16.074" x2="0" y2="16.074"/>
<line fill="none" stroke="#BE1E2D" stroke-width="4" stroke-miterlimit="10" x1="44.33" y1="61.834" x2="0" y2="61.834"/>
</svg>
