<?xml version="1.0" encoding="utf-8"?>
<!-- Generator: Adobe Illustrator 15.1.0, SVG Export Plug-In . SVG Version: 6.00 Build 0)  -->
<!DOCTYPE svg PUBLIC "-//W3C//DTD SVG 1.1//EN" "http://www.w3.org/Graphics/SVG/1.1/DTD/svg11.dtd">
<svg version="1.1" id="Layer_1" xmlns="http://www.w3.org/2000/svg" xmlns:xlink="http://www.w3.org/1999/xlink" x="0px" y="0px"
	 width="455px" height="228px" viewBox="0 0 455 228" enable-background="new 0 0 455 228" xml:space="preserve">
<g>
	<path fill="#E1134F" d="M36.178,55.013v-6.8c8.101,0,13.251-2.85,15.251-8.2c-2.25,1.5-4.45,2.2-8,2.2
		c-6.951,0-12.351-3.55-12.351-11.3c0-7.801,6.5-12.001,14.751-12.001c7.801,0,13.901,4.351,13.901,14.151
		C59.729,42.262,54.329,55.013,36.178,55.013z M45.529,25.411c-4.65,0-7.351,2-7.351,5.25c0,3.55,2.6,5.2,7,5.2
		c4.75,0,7.3-1.6,7.3-5.25C52.479,27.361,50.079,25.411,45.529,25.411z"/>
	<path fill="#E1134F" d="M92.378,55.013c-2.3,0-4.3-0.9-5.55-2.05v1.5h-6.9V21.461l6.9-3.45v11.851c1.3-1.15,3.05-2.2,5.55-2.2
		c5.601,0,10.201,4.2,10.201,14.001C102.579,49.513,98.878,55.013,92.378,55.013z M91.078,34.162c-2.15,0-3.25,0.9-4.25,2.2v9.9
		c1.05,1.45,2.65,2.25,4.65,2.25c2.65,0,4.1-2.3,4.1-6.701C95.578,36.412,93.778,34.162,91.078,34.162z"/>
	<path fill="#E1134F" d="M122.478,54.463v-1.75c-1.25,1.3-3.45,2.3-5.9,2.3c-4.9,0-9.801-3-9.801-9.35
		c0-5.801,4.7-8.701,10.651-8.701c2.4,0,3.95,0.5,5.05,1.05v-1.3c0-1.85-1.25-3.35-3.75-3.35c-3.15,0-4.8,0.45-7.2,1.75l-2.65-4.8
		c3.05-1.75,5.601-2.65,9.851-2.65c6.351,0,10.651,3.3,10.651,9.201v17.601H122.478z M122.478,43.462c-1.2-0.75-2.35-1.1-4.8-1.1
		c-2.601,0-4,1.2-4,3.3c0,1.85,1.05,3.5,4,3.5c2.25,0,4.05-1.15,4.8-2.4V43.462z"/>
	<path fill="#E1134F" d="M151.178,36.262c-1.1-1-2.45-1.7-4-1.7c-2.7,0-4.45,1.15-4.45,5.701v14.201h-6.9V28.211h6.9v1.75
		c1.2-1.25,2.95-2.3,5.4-2.3c2.25,0,3.95,0.9,4.851,1.85L151.178,36.262z"/>
	<path fill="#E1134F" d="M168.177,55.013c-6.85,0-12.301-5.6-12.301-13.65c0-8.051,5.3-13.701,12.601-13.701c5,0,8.2,2.45,10.4,5.8
		l-4.55,4.601c-1.55-2.2-3.2-3.75-6-3.75c-3.3,0-5.45,2.75-5.45,7.051c0,4.2,2.15,7,5.45,7c2.7,0,4.4-1.2,6.201-3.35l4.4,4.15
		C176.378,52.563,173.377,55.013,168.177,55.013z"/>
	<path fill="#E1134F" d="M194.577,55.013c-6.851,0-11.851-5.6-11.851-13.65c0-8.051,5-13.701,11.851-13.701
		c6.85,0,11.9,5.65,11.9,13.701C206.477,49.413,201.427,55.013,194.577,55.013z M194.577,34.312c-3.3,0-4.851,3-4.851,7.051
		c0,4.05,1.55,7,4.851,7c3.3,0,4.9-3.35,4.9-7C199.477,37.362,197.876,34.312,194.577,34.312z"/>
	<path fill="#E1134F" d="M221.876,55.013c-4.15,0-8.201-1.2-11.001-3.05l2.3-5.25c2.8,1.55,5.75,2.4,9.101,2.4c2.7,0,3.5-0.65,3.5-2
		c0-1.2-0.95-1.8-3.851-2.65c-6.3-1.9-10.351-3.45-10.351-9c0-5.451,4.351-7.801,10.501-7.801c3.3,0,6.9,1,9.7,2.55l-2.2,5.45
		c-2.6-1.4-5.45-2.1-7.65-2.1c-2.8,0-3.55,0.55-3.55,1.7c0,1.1,0.8,1.55,5.451,3.05c4.7,1.55,8.75,3.25,8.75,8.5
		C232.576,52.863,227.776,55.013,221.876,55.013z"/>
	<path fill="#FFFFFF" d="M35.312,88.371c-2.016,0-3.78-0.756-5.18-1.875l1.232-1.54c1.176,1.036,2.548,1.624,4.004,1.624
		c2.016,0,2.968-0.84,2.968-2.268c0-1.204-0.868-1.876-3.472-2.996c-2.94-1.26-4.172-2.156-4.172-4.508
		c0-2.24,1.932-3.752,4.592-3.752c2.016,0,3.584,0.644,4.704,1.568l-1.176,1.54c-1.148-0.896-2.1-1.316-3.668-1.316
		c-1.54,0-2.436,0.756-2.436,1.82c0,1.232,0.756,1.736,3.248,2.856c2.772,1.26,4.396,2.072,4.396,4.704
		C40.352,87.111,37.86,88.371,35.312,88.371z"/>
	<path fill="#FFFFFF" d="M55.443,81.427h-9.8c0.196,3.136,1.68,5.124,4.088,5.124c1.708,0,2.716-0.504,4.06-1.4l0.98,1.512
		c-1.764,1.12-3.052,1.708-5.264,1.708c-2.688,0-5.964-1.959-5.964-7.728c0-4.676,2.576-7.588,6.076-7.588
		c3.836,0,5.908,3.024,5.908,7.224C55.527,80.783,55.5,81.091,55.443,81.427z M49.591,74.875c-2.184,0-3.696,1.568-3.948,4.844
		h7.924C53.399,76.863,52.167,74.875,49.591,74.875z"/>
	<path fill="#FFFFFF" d="M74.231,75.547c-0.588-0.336-1.232-0.56-2.212-0.56c-2.044,0-3.192,1.652-3.192,4.452v8.624h-2.1v-14.7h2.1
		v1.82c0.672-1.176,2.072-2.128,3.64-2.128c1.092,0,1.792,0.14,2.296,0.364L74.231,75.547z"/>
	<path fill="#FFFFFF" d="M89.239,81.427h-9.8c0.196,3.136,1.68,5.124,4.088,5.124c1.708,0,2.716-0.504,4.06-1.4l0.98,1.512
		c-1.764,1.12-3.052,1.708-5.264,1.708c-2.688,0-5.964-1.959-5.964-7.728c0-4.676,2.576-7.588,6.076-7.588
		c3.836,0,5.908,3.024,5.908,7.224C89.323,80.783,89.295,81.091,89.239,81.427z M83.387,74.875c-2.184,0-3.696,1.568-3.948,4.844
		h7.924C87.195,76.863,85.963,74.875,83.387,74.875z"/>
	<path fill="#FFFFFF" d="M102.174,76.359c-1.064-0.952-2.044-1.484-3.528-1.484c-2.296,0-4.06,2.072-4.06,5.74
		c0,3.612,1.54,5.936,4.144,5.936c1.428,0,2.38-0.588,3.388-1.568l1.26,1.344c-1.232,1.26-2.66,2.043-4.732,2.043
		c-3.22,0-6.188-2.463-6.188-7.587c0-5.432,3.248-7.728,6.328-7.728c1.988,0,3.5,0.728,4.648,1.736L102.174,76.359z"/>
	<path fill="#FFFFFF" d="M108.334,70.731c-0.868,0-1.54-0.672-1.54-1.484c0-0.84,0.672-1.512,1.54-1.512
		c0.784,0,1.456,0.672,1.456,1.512C109.791,70.059,109.118,70.731,108.334,70.731z M107.242,88.063v-14.7h2.1v14.7H107.242z"/>
	<path fill="#FFFFFF" d="M120.374,88.371c-1.848,0-3.108-0.784-4.144-1.959v1.652h-2.1V68.827l2.1-1.176v7.504
		c1.036-1.12,2.436-2.1,4.424-2.1c2.94,0,5.264,2.24,5.264,7.42C125.918,85.683,123.454,88.371,120.374,88.371z M120.122,74.875
		c-1.568,0-2.856,0.84-3.892,2.128v7.336c0.812,1.232,2.24,2.212,3.976,2.212c2.436,0,3.64-2.1,3.64-6.048
		C123.846,76.807,122.446,74.875,120.122,74.875z"/>
	<path fill="#FFFFFF" d="M131.014,70.731c-0.868,0-1.54-0.672-1.54-1.484c0-0.84,0.672-1.512,1.54-1.512
		c0.784,0,1.456,0.672,1.456,1.512C132.47,70.059,131.798,70.731,131.014,70.731z M129.922,88.063v-14.7h2.1v14.7H129.922z"/>
	<path fill="#FFFFFF" d="M144.314,75.547c-0.588-0.336-1.232-0.56-2.212-0.56c-2.044,0-3.192,1.652-3.192,4.452v8.624h-2.1v-14.7
		h2.1v1.82c0.672-1.176,2.072-2.128,3.64-2.128c1.092,0,1.792,0.14,2.296,0.364L144.314,75.547z"/>
	<path fill="#FFFFFF" d="M156.634,88.063v-1.792c-1.036,1.12-2.492,2.1-4.592,2.1c-2.296,0-4.704-1.147-4.704-4.704
		c0-3.304,2.716-4.704,5.628-4.704c1.484,0,2.8,0.364,3.668,0.84v-1.736c0-2.184-1.036-3.248-3.192-3.248
		c-1.54,0-2.8,0.42-4.004,1.12l-0.784-1.708c1.288-0.7,3.024-1.176,4.928-1.176c3.164,0,5.152,1.344,5.152,4.76v10.248H156.634z
		 M156.634,81.483c-0.952-0.532-1.988-0.84-3.78-0.84c-2.156,0-3.444,1.036-3.444,2.884c0,2.184,1.204,3.136,2.996,3.136
		c1.904,0,3.332-0.98,4.228-2.212V81.483z M153.89,71.403h-1.652l2.884-4.48h2.996L153.89,71.403z"/>
	<path fill="#FFFFFF" d="M172.51,88.063v-8.596c0-3.164-1.12-4.592-3.472-4.592c-2.044,0-3.64,1.372-3.64,4.592v8.596h-2.1v-14.7
		h2.1v1.792c0.84-1.232,2.212-2.1,4.06-2.1c3.108,0,5.152,1.82,5.152,6.048v8.96H172.51z"/>
	<path fill="#FFFFFF" d="M194.881,88.063v-1.792c-1.036,1.12-2.492,2.1-4.592,2.1c-2.296,0-4.704-1.147-4.704-4.704
		c0-3.304,2.716-4.704,5.628-4.704c1.484,0,2.8,0.364,3.668,0.84v-1.736c0-2.184-1.036-3.248-3.192-3.248
		c-1.54,0-2.8,0.42-4.004,1.12l-0.784-1.708c1.288-0.7,3.024-1.176,4.928-1.176c3.164,0,5.152,1.344,5.152,4.76v10.248H194.881z
		 M194.881,81.483c-0.952-0.532-1.988-0.84-3.78-0.84c-2.156,0-3.444,1.036-3.444,2.884c0,2.184,1.204,3.136,2.996,3.136
		c1.904,0,3.332-0.98,4.228-2.212V81.483z"/>
	<path fill="#FFFFFF" d="M207.789,88.371c-1.848,0-3.108-0.784-4.144-1.959v5.879l-2.1,1.177V73.363h2.1v1.792
		c1.036-1.12,2.436-2.1,4.424-2.1c2.94,0,5.264,2.24,5.264,7.42C213.333,85.683,210.869,88.371,207.789,88.371z M207.537,74.875
		c-1.568,0-2.856,0.84-3.892,2.128v7.336c0.812,1.232,2.24,2.212,3.976,2.212c2.436,0,3.64-2.1,3.64-6.048
		C211.261,76.807,209.861,74.875,207.537,74.875z"/>
	<path fill="#FFFFFF" d="M224.701,75.547c-0.588-0.336-1.232-0.56-2.212-0.56c-2.044,0-3.192,1.652-3.192,4.452v8.624h-2.1v-14.7
		h2.1v1.82c0.672-1.176,2.072-2.128,3.64-2.128c1.092,0,1.792,0.14,2.296,0.364L224.701,75.547z"/>
	<path fill="#FFFFFF" d="M234.137,88.371c-3.584,0-6.328-2.66-6.328-7.644s2.855-7.672,6.439-7.672s6.328,2.576,6.328,7.56
		C240.576,85.599,237.721,88.371,234.137,88.371z M234.192,74.875c-2.548,0-4.256,1.932-4.256,5.796c0,3.864,1.708,5.88,4.256,5.88
		s4.284-2.016,4.284-5.88C238.477,76.807,236.74,74.875,234.192,74.875z"/>
	<path fill="#FFFFFF" d="M252.477,88.063l-2.912-5.096l-0.448-0.812l-0.448,0.812l-2.939,5.096h-2.184l4.535-7.588l-4.229-7.112
		h2.324l2.604,4.564l0.448,0.812l0.447-0.812l2.633-4.564h2.184l-4.229,7.056l4.537,7.644H252.477z"/>
	<path fill="#FFFFFF" d="M259.784,70.731c-0.868,0-1.54-0.672-1.54-1.484c0-0.84,0.672-1.512,1.54-1.512
		c0.784,0,1.456,0.672,1.456,1.512C261.24,70.059,260.568,70.731,259.784,70.731z M258.691,88.063v-14.7h2.101v14.7H258.691z"/>
	<path fill="#FFFFFF" d="M282.66,88.063v-8.596c0-3.36-1.036-4.592-3.164-4.592c-1.988,0-3.276,1.344-3.276,4.592v8.596h-2.101
		v-8.596c0-3.36-1.119-4.592-3.163-4.592c-2.017,0-3.276,1.344-3.276,4.592v8.596h-2.1v-14.7h2.1v1.792
		c0.756-1.26,1.988-2.1,3.725-2.1c2.071,0,3.332,1.12,4.031,2.52c0.868-1.4,2.072-2.52,4.452-2.52c2.996,0,4.872,1.764,4.872,6.048
		v8.96H282.66z"/>
	<path fill="#FFFFFF" d="M297.752,88.063v-1.792c-1.037,1.12-2.492,2.1-4.592,2.1c-2.297,0-4.705-1.147-4.705-4.704
		c0-3.304,2.717-4.704,5.629-4.704c1.483,0,2.799,0.364,3.668,0.84v-1.736c0-2.184-1.037-3.248-3.192-3.248
		c-1.54,0-2.8,0.42-4.004,1.12l-0.784-1.708c1.288-0.7,3.023-1.176,4.928-1.176c3.164,0,5.152,1.344,5.152,4.76v10.248H297.752z
		 M297.752,81.483c-0.953-0.532-1.988-0.84-3.78-0.84c-2.156,0-3.444,1.036-3.444,2.884c0,2.184,1.204,3.136,2.996,3.136
		c1.904,0,3.332-0.98,4.229-2.212V81.483z"/>
	<path fill="#FFFFFF" d="M313.319,88.063v-1.792c-1.036,1.12-2.437,2.1-4.424,2.1c-2.94,0-5.265-2.24-5.265-7.419
		c0-5.208,2.465-7.896,5.545-7.896c1.848,0,3.107,0.784,4.144,1.96v-6.188l2.101-1.176v20.412H313.319z M313.319,77.087
		c-0.812-1.232-2.24-2.212-3.976-2.212c-2.437,0-3.641,2.1-3.641,6.048c0,3.696,1.4,5.628,3.725,5.628
		c1.567,0,2.855-0.84,3.892-2.128V77.087z"/>
	<path fill="#FFFFFF" d="M328.495,88.063v-1.792c-1.036,1.12-2.492,2.1-4.592,2.1c-2.296,0-4.704-1.147-4.704-4.704
		c0-3.304,2.716-4.704,5.628-4.704c1.483,0,2.8,0.364,3.668,0.84v-1.736c0-2.184-1.036-3.248-3.192-3.248
		c-1.539,0-2.8,0.42-4.004,1.12l-0.783-1.708c1.287-0.7,3.023-1.176,4.928-1.176c3.164,0,5.152,1.344,5.152,4.76v10.248H328.495z
		 M328.495,81.483c-0.952-0.532-1.987-0.84-3.78-0.84c-2.156,0-3.443,1.036-3.443,2.884c0,2.184,1.203,3.136,2.996,3.136
		c1.903,0,3.332-0.98,4.228-2.212V81.483z"/>
	<path fill="#FFFFFF" d="M352.238,88.063v-8.596c0-3.36-1.035-4.592-3.164-4.592c-1.987,0-3.275,1.344-3.275,4.592v8.596h-2.1
		v-8.596c0-3.36-1.12-4.592-3.164-4.592c-2.016,0-3.276,1.344-3.276,4.592v8.596h-2.1v-14.7h2.1v1.792
		c0.757-1.26,1.988-2.1,3.724-2.1c2.072,0,3.332,1.12,4.033,2.52c0.867-1.4,2.071-2.52,4.451-2.52c2.996,0,4.872,1.764,4.872,6.048
		v8.96H352.238z"/>
	<path fill="#FFFFFF" d="M370.019,81.427h-9.8c0.195,3.136,1.68,5.124,4.088,5.124c1.708,0,2.716-0.504,4.061-1.4l0.979,1.512
		c-1.765,1.12-3.052,1.708-5.265,1.708c-2.688,0-5.963-1.959-5.963-7.728c0-4.676,2.576-7.588,6.075-7.588
		c3.837,0,5.908,3.024,5.908,7.224C370.103,80.783,370.074,81.091,370.019,81.427z M364.166,74.875
		c-2.184,0-3.695,1.568-3.947,4.844h7.924C367.975,76.863,366.742,74.875,364.166,74.875z"/>
	<path fill="#FFFFFF" d="M383.234,88.063v-8.596c0-3.164-1.12-4.592-3.473-4.592c-2.043,0-3.64,1.372-3.64,4.592v8.596h-2.1v-14.7
		h2.1v1.792c0.841-1.232,2.212-2.1,4.06-2.1c3.108,0,5.152,1.82,5.152,6.048v8.96H383.234z"/>
	<path fill="#FFFFFF" d="M392.586,75.127v9.576c0,1.316,0.363,1.764,1.484,1.764c0.84,0,1.399-0.14,2.071-0.42l-0.14,1.82
		c-0.812,0.335-1.596,0.503-2.717,0.503c-1.819,0-2.799-0.896-2.799-3.332v-9.912h-1.82v-1.764h1.82v-4.536l2.1-1.176v5.712h3.64
		v1.764H392.586z"/>
	<path fill="#FFFFFF" d="M411.43,81.427h-9.8c0.196,3.136,1.68,5.124,4.088,5.124c1.708,0,2.716-0.504,4.06-1.4l0.98,1.512
		c-1.764,1.12-3.053,1.708-5.264,1.708c-2.688,0-5.965-1.959-5.965-7.728c0-4.676,2.576-7.588,6.076-7.588
		c3.836,0,5.908,3.024,5.908,7.224C411.514,80.783,411.486,81.091,411.43,81.427z M405.578,74.875c-2.185,0-3.696,1.568-3.948,4.844
		h7.924C409.386,76.863,408.154,74.875,405.578,74.875z"/>
	<path fill="#FFFFFF" d="M37.496,121.971c-1.848,0-3.108-0.783-4.144-1.959v5.879l-2.1,1.178v-20.105h2.1v1.792
		c1.036-1.12,2.436-2.1,4.424-2.1c2.94,0,5.264,2.24,5.264,7.42C43.04,119.283,40.576,121.971,37.496,121.971z M37.244,108.476
		c-1.568,0-2.856,0.84-3.892,2.128v7.335c0.812,1.232,2.24,2.213,3.976,2.213c2.436,0,3.64-2.102,3.64-6.048
		C40.968,110.408,39.568,108.476,37.244,108.476z"/>
	<path fill="#FFFFFF" d="M52.448,121.971c-3.584,0-6.328-2.658-6.328-7.643c0-4.984,2.856-7.672,6.44-7.672s6.328,2.576,6.328,7.56
		C58.888,119.199,56.032,121.971,52.448,121.971z M52.503,108.476c-2.548,0-4.256,1.932-4.256,5.796c0,3.863,1.708,5.88,4.256,5.88
		c2.548,0,4.284-2.018,4.284-5.88C56.788,110.408,55.052,108.476,52.503,108.476z"/>
	<path fill="#FFFFFF" d="M70.255,109.148c-0.588-0.336-1.232-0.561-2.212-0.561c-2.044,0-3.192,1.652-3.192,4.452v8.625h-2.1
		v-14.701h2.1v1.82c0.672-1.176,2.072-2.128,3.64-2.128c1.092,0,1.792,0.14,2.296,0.364L70.255,109.148z"/>
	<path fill="#FFFFFF" d="M98.507,121.664v-8.596c0-3.36-1.036-4.592-3.164-4.592c-1.988,0-3.276,1.344-3.276,4.592v8.596h-2.1
		v-8.596c0-3.36-1.12-4.592-3.164-4.592c-2.016,0-3.276,1.344-3.276,4.592v8.596h-2.1v-14.701h2.1v1.792
		c0.756-1.26,1.988-2.1,3.724-2.1c2.072,0,3.332,1.12,4.032,2.52c0.868-1.399,2.072-2.52,4.452-2.52
		c2.996,0,4.872,1.764,4.872,6.048v8.96H98.507z"/>
	<path fill="#FFFFFF" d="M116.287,115.027h-9.8c0.196,3.137,1.68,5.125,4.088,5.125c1.708,0,2.716-0.504,4.06-1.4l0.98,1.512
		c-1.764,1.119-3.052,1.707-5.264,1.707c-2.688,0-5.964-1.959-5.964-7.727c0-4.676,2.576-7.588,6.076-7.588
		c3.836,0,5.908,3.023,5.908,7.224C116.371,114.383,116.343,114.691,116.287,115.027z M110.435,108.476
		c-2.184,0-3.696,1.567-3.948,4.844h7.924C114.243,110.463,113.011,108.476,110.435,108.476z"/>
	<path fill="#FFFFFF" d="M124.35,121.971c-2.016,0-3.78-0.756-5.18-1.875l1.232-1.541c1.176,1.037,2.548,1.625,4.004,1.625
		c2.016,0,2.968-0.84,2.968-2.268c0-1.205-0.868-1.877-3.472-2.996c-2.94-1.26-4.172-2.157-4.172-4.508
		c0-2.24,1.932-3.752,4.592-3.752c2.016,0,3.584,0.644,4.704,1.567l-1.176,1.54c-1.148-0.896-2.1-1.315-3.668-1.315
		c-1.54,0-2.436,0.756-2.436,1.82c0,1.231,0.756,1.735,3.248,2.855c2.772,1.26,4.396,2.072,4.396,4.705
		C129.39,120.711,126.898,121.971,124.35,121.971z"/>
	<path fill="#FFFFFF" d="M134.402,121.971c-0.98,0-1.792-0.811-1.792-1.791s0.812-1.848,1.792-1.848
		c0.952,0,1.792,0.867,1.792,1.848S135.354,121.971,134.402,121.971z"/>
	<path fill="#FFFFFF" d="M38.588,155.57c-4.788,0-7.924-4.34-7.924-10.078c0-5.824,3.276-10.137,8.008-10.137
		c2.688,0,4.704,1.008,6.244,3.137l-1.736,1.314c-1.26-1.707-2.436-2.463-4.564-2.463c-3.36,0-5.768,3.332-5.768,8.092
		c0,4.787,2.492,8.148,5.796,8.148c2.128,0,3.584-0.953,4.844-2.576L45,152.322C43.572,154.256,41.444,155.57,38.588,155.57z"/>
	<path fill="#FFFFFF" d="M57.264,155.264v-1.793c-1.036,1.121-2.492,2.1-4.592,2.1c-2.296,0-4.704-1.146-4.704-4.703
		c0-3.305,2.716-4.703,5.628-4.703c1.484,0,2.8,0.363,3.668,0.84v-1.736c0-2.184-1.036-3.248-3.192-3.248
		c-1.54,0-2.8,0.42-4.004,1.119l-0.784-1.707c1.288-0.701,3.024-1.176,4.928-1.176c3.164,0,5.152,1.344,5.152,4.76v10.248H57.264z
		 M57.264,148.684c-0.952-0.533-1.988-0.84-3.78-0.84c-2.156,0-3.444,1.035-3.444,2.883c0,2.186,1.204,3.137,2.996,3.137
		c1.904,0,3.332-0.98,4.228-2.213V148.684z"/>
	<path fill="#FFFFFF" d="M70.171,155.57c-1.848,0-3.108-0.783-4.144-1.959v5.879l-2.1,1.178v-20.105h2.1v1.793
		c1.036-1.121,2.436-2.1,4.424-2.1c2.94,0,5.264,2.24,5.264,7.42C75.715,152.883,73.251,155.57,70.171,155.57z M69.919,142.076
		c-1.568,0-2.856,0.84-3.892,2.127v7.336c0.812,1.232,2.24,2.213,3.976,2.213c2.436,0,3.64-2.102,3.64-6.049
		C73.644,144.008,72.244,142.076,69.919,142.076z"/>
	<path fill="#FFFFFF" d="M88.007,155.264v-1.793c-1.036,1.121-2.492,2.1-4.592,2.1c-2.296,0-4.704-1.146-4.704-4.703
		c0-3.305,2.716-4.703,5.628-4.703c1.484,0,2.8,0.363,3.668,0.84v-1.736c0-2.184-1.036-3.248-3.192-3.248
		c-1.54,0-2.8,0.42-4.004,1.119l-0.784-1.707c1.288-0.701,3.024-1.176,4.928-1.176c3.164,0,5.152,1.344,5.152,4.76v10.248H88.007z
		 M88.007,148.684c-0.952-0.533-1.988-0.84-3.78-0.84c-2.156,0-3.444,1.035-3.444,2.883c0,2.186,1.204,3.137,2.996,3.137
		c1.904,0,3.332-0.98,4.228-2.213V148.684z"/>
	<path fill="#FFFFFF" d="M103.603,143.559c-1.064-0.951-2.044-1.482-3.528-1.482c-2.296,0-4.06,2.07-4.06,5.738
		c0,3.613,1.54,5.938,4.144,5.938c1.428,0,2.38-0.588,3.388-1.568l1.26,1.344c-1.232,1.26-2.66,2.043-4.732,2.043
		c-3.22,0-6.188-2.463-6.188-7.588c0-5.432,3.248-7.727,6.328-7.727c1.988,0,3.5,0.727,4.648,1.736L103.603,143.559z"/>
	<path fill="#FFFFFF" d="M109.763,137.932c-0.868,0-1.54-0.672-1.54-1.484c0-0.84,0.672-1.512,1.54-1.512
		c0.784,0,1.456,0.672,1.456,1.512C111.219,137.26,110.547,137.932,109.763,137.932z M108.671,155.264v-14.701h2.1v14.701H108.671z"
		/>
	<path fill="#FFFFFF" d="M124.463,155.264v-1.793c-1.036,1.121-2.436,2.1-4.424,2.1c-2.94,0-5.264-2.238-5.264-7.42
		c0-5.207,2.464-7.895,5.544-7.895c1.848,0,3.108,0.783,4.144,1.959v-6.188l2.1-1.176v20.412H124.463z M124.463,144.287
		c-0.812-1.232-2.24-2.211-3.976-2.211c-2.436,0-3.64,2.1-3.64,6.047c0,3.695,1.4,5.629,3.724,5.629c1.568,0,2.856-0.84,3.892-2.129
		V144.287z"/>
	<path fill="#FFFFFF" d="M139.639,155.264v-1.793c-1.036,1.121-2.492,2.1-4.592,2.1c-2.296,0-4.704-1.146-4.704-4.703
		c0-3.305,2.716-4.703,5.628-4.703c1.484,0,2.8,0.363,3.668,0.84v-1.736c0-2.184-1.036-3.248-3.192-3.248
		c-1.54,0-2.8,0.42-4.004,1.119l-0.784-1.707c1.288-0.701,3.024-1.176,4.928-1.176c3.164,0,5.152,1.344,5.152,4.76v10.248H139.639z
		 M139.639,148.684c-0.952-0.533-1.988-0.84-3.78-0.84c-2.156,0-3.444,1.035-3.444,2.883c0,2.186,1.204,3.137,2.996,3.137
		c1.904,0,3.332-0.98,4.228-2.213V148.684z"/>
	<path fill="#FFFFFF" d="M155.207,155.264v-1.793c-1.036,1.121-2.436,2.1-4.424,2.1c-2.94,0-5.264-2.238-5.264-7.42
		c0-5.207,2.464-7.895,5.544-7.895c1.848,0,3.108,0.783,4.144,1.959v-6.188l2.1-1.176v20.412H155.207z M155.207,144.287
		c-0.812-1.232-2.24-2.211-3.976-2.211c-2.436,0-3.64,2.1-3.64,6.047c0,3.695,1.4,5.629,3.724,5.629c1.568,0,2.856-0.84,3.892-2.129
		V144.287z"/>
	<path fill="#FFFFFF" d="M178.138,155.264v-1.793c-1.036,1.121-2.436,2.1-4.424,2.1c-2.94,0-5.264-2.238-5.264-7.42
		c0-5.207,2.464-7.895,5.544-7.895c1.848,0,3.108,0.783,4.144,1.959v-6.188l2.1-1.176v20.412H178.138z M178.138,144.287
		c-0.812-1.232-2.24-2.211-3.976-2.211c-2.436,0-3.64,2.1-3.64,6.047c0,3.695,1.4,5.629,3.724,5.629c1.568,0,2.856-0.84,3.892-2.129
		V144.287z"/>
	<path fill="#FFFFFF" d="M196.002,148.627h-9.8c0.196,3.137,1.68,5.125,4.088,5.125c1.708,0,2.716-0.504,4.06-1.4l0.98,1.512
		c-1.764,1.119-3.052,1.707-5.264,1.707c-2.688,0-5.964-1.959-5.964-7.727c0-4.676,2.576-7.588,6.076-7.588
		c3.836,0,5.908,3.023,5.908,7.223C196.086,147.982,196.058,148.291,196.002,148.627z M190.15,142.076
		c-2.184,0-3.696,1.566-3.948,4.844h7.924C193.958,144.062,192.726,142.076,190.15,142.076z"/>
	<path fill="#FFFFFF" d="M216.217,143.559c-1.064-0.951-2.044-1.482-3.528-1.482c-2.296,0-4.06,2.07-4.06,5.738
		c0,3.613,1.54,5.938,4.144,5.938c1.428,0,2.38-0.588,3.388-1.568l1.26,1.344c-1.232,1.26-2.66,2.043-4.732,2.043
		c-3.22,0-6.188-2.463-6.188-7.588c0-5.432,3.248-7.727,6.328-7.727c1.988,0,3.5,0.727,4.648,1.736L216.217,143.559z"/>
	<path fill="#FFFFFF" d="M229.573,155.264v-1.793c-1.036,1.121-2.492,2.1-4.592,2.1c-2.296,0-4.704-1.146-4.704-4.703
		c0-3.305,2.716-4.703,5.628-4.703c1.484,0,2.8,0.363,3.668,0.84v-1.736c0-2.184-1.036-3.248-3.192-3.248
		c-1.54,0-2.8,0.42-4.004,1.119l-0.784-1.707c1.288-0.701,3.024-1.176,4.928-1.176c3.164,0,5.152,1.344,5.152,4.76v10.248H229.573z
		 M229.573,148.684c-0.952-0.533-1.988-0.84-3.78-0.84c-2.156,0-3.444,1.035-3.444,2.883c0,2.186,1.204,3.137,2.996,3.137
		c1.904,0,3.333-0.98,4.228-2.213V148.684z"/>
	<path fill="#FFFFFF" d="M245.141,155.264v-1.793c-1.035,1.121-2.436,2.1-4.424,2.1c-2.939,0-5.264-2.238-5.264-7.42
		c0-5.207,2.464-7.895,5.544-7.895c1.849,0,3.108,0.783,4.144,1.959v-6.188l2.101-1.176v20.412H245.141z M245.141,144.287
		c-0.812-1.232-2.24-2.211-3.976-2.211c-2.437,0-3.64,2.1-3.64,6.047c0,3.695,1.4,5.629,3.724,5.629c1.567,0,2.856-0.84,3.892-2.129
		V144.287z"/>
	<path fill="#FFFFFF" d="M260.316,155.264v-1.793c-1.035,1.121-2.492,2.1-4.592,2.1c-2.296,0-4.703-1.146-4.703-4.703
		c0-3.305,2.715-4.703,5.627-4.703c1.484,0,2.801,0.363,3.668,0.84v-1.736c0-2.184-1.035-3.248-3.191-3.248
		c-1.54,0-2.801,0.42-4.004,1.119l-0.784-1.707c1.288-0.701,3.024-1.176,4.929-1.176c3.163,0,5.151,1.344,5.151,4.76v10.248H260.316
		z M260.316,148.684c-0.951-0.533-1.987-0.84-3.779-0.84c-2.156,0-3.444,1.035-3.444,2.883c0,2.186,1.204,3.137,2.996,3.137
		c1.903,0,3.332-0.98,4.228-2.213V148.684z"/>
	<path fill="#FFFFFF" d="M280.504,155.57c-1.848,0-3.107-0.783-4.144-1.959v1.652h-2.1v-19.236l2.1-1.176v7.504
		c1.036-1.121,2.437-2.1,4.425-2.1c2.939,0,5.264,2.24,5.264,7.42C286.049,152.883,283.584,155.57,280.504,155.57z M280.252,142.076
		c-1.567,0-2.855,0.84-3.892,2.127v7.336c0.812,1.232,2.24,2.213,3.976,2.213c2.437,0,3.641-2.102,3.641-6.049
		C283.977,144.008,282.576,142.076,280.252,142.076z"/>
	<path fill="#FFFFFF" d="M299.041,155.264v-1.793c-0.841,1.232-2.213,2.1-4.061,2.1c-3.107,0-5.152-1.818-5.152-6.047v-8.961h2.1
		v8.598c0,3.162,1.121,4.592,3.473,4.592c2.044,0,3.641-1.373,3.641-4.592v-8.598h2.1v14.701H299.041z"/>
	<path fill="#FFFFFF" d="M314.691,160.668v-7.197c-1.035,1.121-2.436,2.1-4.424,2.1c-2.939,0-5.264-2.238-5.264-7.42
		c0-5.207,2.464-7.895,5.544-7.895c1.849,0,3.108,0.783,4.144,1.959v-1.652h2.101v18.928L314.691,160.668z M314.691,144.287
		c-0.812-1.232-2.24-2.211-3.976-2.211c-2.437,0-3.64,2.1-3.64,6.047c0,3.695,1.4,5.629,3.724,5.629c1.567,0,2.856-0.84,3.892-2.129
		V144.287z"/>
	<path fill="#FFFFFF" d="M330.568,155.264v-1.793c-0.841,1.232-2.213,2.1-4.061,2.1c-3.107,0-5.152-1.818-5.152-6.047v-8.961h2.1
		v8.598c0,3.162,1.121,4.592,3.473,4.592c2.044,0,3.641-1.373,3.641-4.592v-8.598h2.1v14.701H330.568z"/>
	<path fill="#FFFFFF" d="M348.432,148.627h-9.801c0.196,3.137,1.68,5.125,4.088,5.125c1.709,0,2.717-0.504,4.061-1.4l0.98,1.512
		c-1.765,1.119-3.053,1.707-5.265,1.707c-2.688,0-5.964-1.959-5.964-7.727c0-4.676,2.576-7.588,6.076-7.588
		c3.836,0,5.908,3.023,5.908,7.223C348.516,147.982,348.487,148.291,348.432,148.627z M342.579,142.076
		c-2.185,0-3.696,1.566-3.948,4.844h7.924C346.387,144.062,345.155,142.076,342.579,142.076z"/>
	<path fill="#FFFFFF" d="M353.471,143.895c-0.98,0-1.792-0.811-1.792-1.791s0.812-1.848,1.792-1.848
		c0.952,0,1.792,0.867,1.792,1.848S354.423,143.895,353.471,143.895z M353.471,155.57c-0.98,0-1.792-0.811-1.792-1.791
		s0.812-1.848,1.792-1.848c0.952,0,1.792,0.867,1.792,1.848S354.423,155.57,353.471,155.57z"/>
	<path fill="#FFFFFF" d="M37.271,189.17c-2.94,0-5.572-1.146-7.756-3.752l2.968-2.406c1.624,1.707,3.164,2.322,5.152,2.322
		c2.576,0,3.78-0.924,3.78-2.49c0-1.514-1.036-2.24-2.884-2.24h-2.324v-3.836h2.1c1.624,0,2.296-0.701,2.296-1.988
		c0-1.008-0.812-1.988-3.276-1.988c-1.512,0-2.744,0.531-3.836,1.652l-2.856-2.605c1.876-1.959,3.836-2.883,6.748-2.883
		c4.004,0,7.196,1.848,7.196,5.543c0,2.129-1.12,3.416-2.268,4.004c1.26,0.477,3.08,1.709,3.08,4.285
		C45.392,187.016,42.144,189.17,37.271,189.17z"/>
	<path fill="#FFFFFF" d="M56.591,189.17c-5.348,0-8.204-4.143-8.204-10.107c0-5.963,2.884-10.107,8.232-10.107
		c5.348,0,8.232,4.088,8.232,10.051C64.851,184.971,61.939,189.17,56.591,189.17z M56.591,172.791c-2.996,0-4.228,2.717-4.228,6.215
		c0,3.5,1.26,6.328,4.256,6.328s4.256-2.771,4.256-6.271S59.587,172.791,56.591,172.791z"/>
	<path fill="#FFFFFF" d="M75.855,189.17c-5.348,0-8.204-4.143-8.204-10.107c0-5.963,2.884-10.107,8.232-10.107
		c5.348,0,8.232,4.088,8.232,10.051C84.115,184.971,81.203,189.17,75.855,189.17z M75.855,172.791c-2.996,0-4.228,2.717-4.228,6.215
		c0,3.5,1.26,6.328,4.256,6.328s4.256-2.771,4.256-6.271S78.851,172.791,75.855,172.791z"/>
	<path fill="#FFFFFF" d="M89.323,189.17c-1.428,0-2.632-1.203-2.632-2.631s1.204-2.633,2.632-2.633c1.428,0,2.632,1.205,2.632,2.633
		S90.75,189.17,89.323,189.17z"/>
	<path fill="#FFFFFF" d="M102.734,189.17c-5.348,0-8.204-4.143-8.204-10.107c0-5.963,2.884-10.107,8.232-10.107
		c5.348,0,8.232,4.088,8.232,10.051C110.994,184.971,108.083,189.17,102.734,189.17z M102.734,172.791
		c-2.996,0-4.228,2.717-4.228,6.215c0,3.5,1.26,6.328,4.256,6.328s4.256-2.771,4.256-6.271S105.73,172.791,102.734,172.791z"/>
	<path fill="#FFFFFF" d="M121.998,189.17c-5.348,0-8.204-4.143-8.204-10.107c0-5.963,2.884-10.107,8.232-10.107
		c5.348,0,8.232,4.088,8.232,10.051C130.258,184.971,127.346,189.17,121.998,189.17z M121.998,172.791
		c-2.996,0-4.228,2.717-4.228,6.215c0,3.5,1.26,6.328,4.256,6.328s4.256-2.771,4.256-6.271S124.994,172.791,121.998,172.791z"/>
	<path fill="#FFFFFF" d="M141.262,189.17c-5.348,0-8.204-4.143-8.204-10.107c0-5.963,2.884-10.107,8.232-10.107
		c5.348,0,8.232,4.088,8.232,10.051C149.521,184.971,146.61,189.17,141.262,189.17z M141.262,172.791
		c-2.996,0-4.228,2.717-4.228,6.215c0,3.5,1.26,6.328,4.256,6.328s4.256-2.771,4.256-6.271S144.258,172.791,141.262,172.791z"/>
	<path fill="#FFFFFF" d="M167.889,189.17c-1.288,0-2.408-0.504-3.108-1.146v0.84h-3.864v-18.48l3.864-1.932v6.635
		c0.728-0.643,1.708-1.23,3.108-1.23c3.136,0,5.712,2.352,5.712,7.84C173.601,186.09,171.529,189.17,167.889,189.17z
		 M167.161,177.494c-1.204,0-1.82,0.504-2.38,1.232v5.545c0.588,0.811,1.484,1.26,2.604,1.26c1.484,0,2.296-1.289,2.296-3.752
		C169.681,178.754,168.673,177.494,167.161,177.494z"/>
	<path fill="#FFFFFF" d="M184.745,188.863v-0.98c-0.7,0.729-1.932,1.287-3.304,1.287c-2.744,0-5.488-1.68-5.488-5.234
		c0-3.248,2.632-4.873,5.964-4.873c1.344,0,2.212,0.281,2.828,0.588v-0.729c0-1.035-0.7-1.875-2.1-1.875
		c-1.764,0-2.688,0.252-4.032,0.98l-1.484-2.689c1.708-0.979,3.136-1.482,5.516-1.482c3.556,0,5.964,1.848,5.964,5.15v9.857H184.745
		z M184.745,182.703c-0.672-0.42-1.316-0.617-2.688-0.617c-1.456,0-2.24,0.674-2.24,1.85c0,1.035,0.588,1.959,2.24,1.959
		c1.26,0,2.268-0.645,2.688-1.344V182.703z"/>
	<path fill="#FFFFFF" d="M200.817,178.67c-0.616-0.559-1.372-0.951-2.24-0.951c-1.512,0-2.492,0.645-2.492,3.191v7.953h-3.864
		v-14.701h3.864v0.98c0.672-0.699,1.652-1.287,3.024-1.287c1.26,0,2.212,0.504,2.716,1.035L200.817,178.67z"/>
	<path fill="#FFFFFF" d="M212.801,178.67c-0.616-0.559-1.372-0.951-2.24-0.951c-1.512,0-2.492,0.645-2.492,3.191v7.953h-3.864
		v-14.701h3.864v0.98c0.672-0.699,1.652-1.287,3.024-1.287c1.26,0,2.212,0.504,2.716,1.035L212.801,178.67z"/>
	<path fill="#FFFFFF" d="M218.26,172.959c-1.204,0-2.212-1.008-2.212-2.213c0-1.203,1.008-2.211,2.212-2.211
		c1.204,0,2.212,1.008,2.212,2.211C220.473,171.951,219.464,172.959,218.26,172.959z M216.329,188.863v-14.701h3.864v14.701H216.329
		z"/>
	<path fill="#FFFFFF" d="M224.225,188.863v-18.48l3.863-1.932v20.412H224.225z"/>
	<path fill="#FFFFFF" d="M243.908,182.76h-8.791c0.139,2.016,1.623,2.771,3.023,2.771c1.064,0,1.96-0.393,2.52-1.037l2.744,2.297
		c-1.176,1.512-3.304,2.379-5.264,2.379c-4.229,0-6.916-2.996-6.916-7.643c0-4.508,2.828-7.672,6.552-7.672
		c3.92,0,6.188,3.471,6.188,7.672C243.965,182.086,243.937,182.479,243.908,182.76z M237.58,177.215
		c-1.399,0-2.268,1.148-2.408,2.633h5.041C240.101,178.531,239.316,177.215,237.58,177.215z"/>
	<path fill="#FFFFFF" d="M252.672,189.17c-2.323,0-4.592-0.672-6.159-1.707l1.288-2.939c1.568,0.867,3.22,1.344,5.096,1.344
		c1.512,0,1.96-0.365,1.96-1.121c0-0.672-0.532-1.008-2.156-1.482c-3.528-1.064-5.796-1.934-5.796-5.041
		c0-3.053,2.436-4.367,5.88-4.367c1.849,0,3.864,0.559,5.433,1.428l-1.232,3.051c-1.456-0.783-3.052-1.176-4.284-1.176
		c-1.567,0-1.987,0.309-1.987,0.953c0,0.615,0.447,0.867,3.052,1.707c2.632,0.869,4.899,1.82,4.899,4.76
		C258.664,187.967,255.977,189.17,252.672,189.17z"/>
</g>
</svg>
