<?xml version="1.0" encoding="utf-8"?>
<!-- Generator: Adobe Illustrator 15.1.0, SVG Export Plug-In . SVG Version: 6.00 Build 0)  -->
<!DOCTYPE svg PUBLIC "-//W3C//DTD SVG 1.1//EN" "http://www.w3.org/Graphics/SVG/1.1/DTD/svg11.dtd">
<svg version="1.1" id="Layer_1" xmlns="http://www.w3.org/2000/svg" xmlns:xlink="http://www.w3.org/1999/xlink" x="0px" y="0px"
	 width="423.072px" height="162.975px" viewBox="-11.036 -16.763 423.072 162.975"
	 enable-background="new -11.036 -16.763 423.072 162.975" xml:space="preserve">
<g>
	<path fill="#E1134F" d="M-7.886,25.737c0.2-12,7.55-17.201,16.101-20.951c3-1.3,3.95-2.7,3.95-4.2c0-1.8-1.55-3.55-5.75-3.55
		c-4.15,0-7.5,1.85-9.951,4.2l-4.5-5.25c3.7-3.75,8.651-5.8,14.201-5.8c8.3,0,13,3.35,13,10.051c0,5.65-3.05,8.101-9,10.851
		c-6.2,2.85-8.601,5.2-9.25,7.9h18.601v6.75H-7.886z"/>
	<path fill="#E1134F" d="M29.914,26.287c-2.55,0-4.7-2.15-4.7-4.7c0-2.55,2.15-4.7,4.7-4.7c2.55,0,4.7,2.15,4.7,4.7
		C34.614,24.137,32.464,26.287,29.914,26.287z"/>
	<path fill="#E1134F" d="M53.864,26.287c-9.55,0-14.651-7.4-14.651-18.051c0-10.651,5.15-18.051,14.701-18.051
		c9.55,0,14.701,7.3,14.701,17.951S63.415,26.287,53.864,26.287z M53.864-2.965c-5.35,0-7.55,4.85-7.55,11.101
		s2.25,11.301,7.601,11.301c5.35,0,7.6-4.95,7.6-11.201S59.215-2.965,53.864-2.965z"/>
	<path fill="#E1134F" d="M88.264,26.287c-9.55,0-14.651-7.4-14.651-18.051c0-10.651,5.15-18.051,14.701-18.051
		c9.55,0,14.701,7.3,14.701,17.951S97.814,26.287,88.264,26.287z M88.264-2.965c-5.35,0-7.55,4.85-7.55,11.101
		s2.25,11.301,7.601,11.301c5.35,0,7.6-4.95,7.6-11.201S93.614-2.965,88.264-2.965z"/>
	<path fill="#E1134F" d="M122.663,26.287c-9.55,0-14.651-7.4-14.651-18.051c0-10.651,5.15-18.051,14.701-18.051
		c9.55,0,14.701,7.3,14.701,17.951S132.214,26.287,122.663,26.287z M122.663-2.965c-5.35,0-7.55,4.85-7.55,11.101
		s2.25,11.301,7.601,11.301c5.35,0,7.6-4.95,7.6-11.201S128.014-2.965,122.663-2.965z"/>
	<path fill="#E1134F" d="M170.212,26.287c-2.3,0-4.3-0.9-5.55-2.05v7.7l-6.9,3.45V-0.515h6.9v1.65c1.3-1.15,3.05-2.2,5.55-2.2
		c5.601,0,10.201,4.2,10.201,14.001C180.413,20.787,176.712,26.287,170.212,26.287z M168.912,5.436c-2.15,0-3.25,0.9-4.25,2.2v9.9
		c1.05,1.45,2.65,2.25,4.65,2.25c2.65,0,4.1-2.3,4.1-6.701C173.412,7.686,171.612,5.436,168.912,5.436z"/>
	<path fill="#E1134F" d="M189.561-2.665c-2.15,0-3.95-1.8-3.95-3.95c0-2.15,1.8-3.95,3.95-3.95c2.15,0,3.95,1.8,3.95,3.95
		C193.511-4.465,191.711-2.665,189.561-2.665z M186.111,25.737V-0.515h6.9v26.251H186.111z"/>
	<path fill="#E1134F" d="M212.411,26.287c-2.299,0-4.3-0.9-5.55-2.05v7.7l-6.9,3.45V-0.515h6.9v1.65c1.3-1.15,3.05-2.2,5.55-2.2
		c5.602,0,10.201,4.2,10.201,14.001C222.612,20.787,218.912,26.287,212.411,26.287z M211.112,5.436c-2.15,0-3.251,0.9-4.251,2.2v9.9
		c1.05,1.45,2.65,2.25,4.65,2.25c2.65,0,4.101-2.3,4.101-6.701C215.612,7.686,213.812,5.436,211.112,5.436z"/>
	<path fill="#E1134F" d="M242.512,25.737v-1.75c-1.251,1.3-3.45,2.3-5.9,2.3c-4.9,0-9.801-3-9.801-9.35
		c0-5.801,4.7-8.701,10.651-8.701c2.399,0,3.949,0.5,5.05,1.05v-1.3c0-1.85-1.251-3.35-3.751-3.35c-3.149,0-4.8,0.45-7.199,1.75
		l-2.65-4.8c3.05-1.75,5.6-2.65,9.85-2.65c6.352,0,10.651,3.3,10.651,9.201v17.601H242.512z M242.512,14.736
		c-1.2-0.75-2.351-1.1-4.8-1.1c-2.601,0-4.001,1.2-4.001,3.3c0,1.85,1.05,3.5,4.001,3.5c2.25,0,4.05-1.15,4.8-2.4V14.736z"/>
	<path fill="#E1134F" d="M265.911,26.287c-4.15,0-8.201-1.2-11.001-3.05l2.3-5.25c2.801,1.55,5.751,2.4,9.102,2.4
		c2.699,0,3.5-0.65,3.5-2c0-1.2-0.95-1.8-3.851-2.65c-6.3-1.9-10.351-3.45-10.351-9c0-5.451,4.351-7.801,10.501-7.801
		c3.3,0,6.9,1,9.7,2.55l-2.2,5.45c-2.601-1.4-5.45-2.1-7.65-2.1c-2.8,0-3.55,0.55-3.55,1.7c0,1.1,0.8,1.55,5.45,3.05
		c4.7,1.55,8.751,3.25,8.751,8.5C276.612,24.137,271.812,26.287,265.911,26.287z"/>
	<path fill="#FFFFFF" d="M0.22,47.633c-1.064-0.952-2.044-1.484-3.528-1.484c-2.296,0-4.06,2.072-4.06,5.74
		c0,3.612,1.54,5.936,4.144,5.936c1.428,0,2.38-0.588,3.388-1.568l1.26,1.344c-1.232,1.26-2.66,2.043-4.732,2.043
		c-3.22,0-6.188-2.463-6.188-7.587c0-5.432,3.248-7.728,6.328-7.728c1.988,0,3.5,0.728,4.648,1.736L0.22,47.633z"/>
	<path fill="#FFFFFF" d="M13.576,59.337v-1.792c-1.036,1.12-2.492,2.1-4.592,2.1c-2.296,0-4.704-1.147-4.704-4.704
		c0-3.304,2.716-4.704,5.628-4.704c1.484,0,2.8,0.364,3.668,0.84v-1.736c0-2.184-1.036-3.248-3.192-3.248
		c-1.54,0-2.8,0.42-4.004,1.12l-0.784-1.708c1.288-0.7,3.024-1.176,4.928-1.176c3.164,0,5.152,1.344,5.152,4.76v10.248H13.576z
		 M13.576,52.757c-0.952-0.532-1.988-0.84-3.78-0.84c-2.156,0-3.444,1.036-3.444,2.884c0,2.184,1.204,3.136,2.996,3.136
		c1.904,0,3.332-0.98,4.228-2.212V52.757z"/>
	<path fill="#FFFFFF" d="M27.744,46.821c-0.588-0.336-1.232-0.56-2.212-0.56c-2.044,0-3.192,1.652-3.192,4.452v8.624h-2.1v-14.7h2.1
		v1.82c0.672-1.176,2.072-2.128,3.64-2.128c1.092,0,1.792,0.14,2.296,0.364L27.744,46.821z"/>
	<path fill="#FFFFFF" d="M35.191,64.742l-0.672-1.598c4.9-0.139,6.02-1.427,6.02-4.843v-0.756c-1.036,1.12-2.436,2.1-4.424,2.1
		c-2.94,0-5.264-2.24-5.264-7.419c0-5.208,2.464-7.896,5.544-7.896c1.848,0,3.108,0.784,4.144,1.96v-1.652h2.1v13.384
		C42.64,62.445,40.651,64.574,35.191,64.742z M40.54,48.361c-0.812-1.232-2.24-2.212-3.976-2.212c-2.436,0-3.64,2.1-3.64,6.048
		c0,3.696,1.4,5.628,3.724,5.628c1.568,0,2.856-0.84,3.892-2.128V48.361z"/>
	<path fill="#FFFFFF" d="M55.715,59.337v-1.792c-1.036,1.12-2.492,2.1-4.592,2.1c-2.296,0-4.704-1.147-4.704-4.704
		c0-3.304,2.716-4.704,5.628-4.704c1.484,0,2.8,0.364,3.668,0.84v-1.736c0-2.184-1.036-3.248-3.192-3.248
		c-1.54,0-2.8,0.42-4.004,1.12l-0.784-1.708c1.288-0.7,3.024-1.176,4.928-1.176c3.164,0,5.152,1.344,5.152,4.76v10.248H55.715z
		 M55.715,52.757c-0.952-0.532-1.988-0.84-3.78-0.84c-2.156,0-3.444,1.036-3.444,2.884c0,2.184,1.204,3.136,2.996,3.136
		c1.904,0,3.332-0.98,4.228-2.212V52.757z"/>
	<path fill="#FFFFFF" d="M69.883,46.821c-0.588-0.336-1.232-0.56-2.212-0.56c-2.044,0-3.192,1.652-3.192,4.452v8.624h-2.1v-14.7h2.1
		v1.82c0.672-1.176,2.072-2.128,3.64-2.128c1.092,0,1.792,0.14,2.296,0.364L69.883,46.821z"/>
	<path fill="#FFFFFF" d="M82.203,59.337v-1.792c-1.036,1.12-2.492,2.1-4.592,2.1c-2.296,0-4.704-1.147-4.704-4.704
		c0-3.304,2.716-4.704,5.628-4.704c1.484,0,2.8,0.364,3.668,0.84v-1.736c0-2.184-1.036-3.248-3.192-3.248
		c-1.54,0-2.8,0.42-4.004,1.12l-0.784-1.708c1.288-0.7,3.024-1.176,4.928-1.176c3.164,0,5.152,1.344,5.152,4.76v10.248H82.203z
		 M82.203,52.757c-0.952-0.532-1.988-0.84-3.78-0.84c-2.156,0-3.444,1.036-3.444,2.884c0,2.184,1.204,3.136,2.996,3.136
		c1.904,0,3.332-0.98,4.228-2.212V52.757z"/>
	<path fill="#FFFFFF" d="M98.079,59.337v-8.596c0-3.164-1.12-4.592-3.472-4.592c-2.044,0-3.64,1.372-3.64,4.592v8.596h-2.1v-14.7
		h2.1v1.792c0.84-1.232,2.212-2.1,4.06-2.1c3.108,0,5.152,1.82,5.152,6.048v8.96H98.079z"/>
	<path fill="#FFFFFF" d="M123.138,52.701h-9.8c0.196,3.136,1.68,5.124,4.088,5.124c1.708,0,2.716-0.504,4.06-1.4l0.98,1.512
		c-1.764,1.12-3.052,1.708-5.264,1.708c-2.688,0-5.964-1.959-5.964-7.728c0-4.676,2.576-7.588,6.076-7.588
		c3.836,0,5.908,3.024,5.908,7.224C123.222,52.057,123.194,52.365,123.138,52.701z M117.286,46.149
		c-2.184,0-3.696,1.568-3.948,4.844h7.924C121.094,48.137,119.862,46.149,117.286,46.149z"/>
	<path fill="#FFFFFF" d="M136.354,59.337v-8.596c0-3.164-1.12-4.592-3.472-4.592c-2.044,0-3.64,1.372-3.64,4.592v8.596h-2.1v-14.7
		h2.1v1.792c0.84-1.232,2.212-2.1,4.06-2.1c3.108,0,5.152,1.82,5.152,6.048v8.96H136.354z"/>
	<path fill="#FFFFFF" d="M150.437,59.337V40.101l2.1-1.176v20.412H150.437z"/>
	<path fill="#FFFFFF" d="M165.753,59.337v-1.792c-1.036,1.12-2.492,2.1-4.592,2.1c-2.296,0-4.704-1.147-4.704-4.704
		c0-3.304,2.716-4.704,5.628-4.704c1.484,0,2.8,0.364,3.668,0.84v-1.736c0-2.184-1.036-3.248-3.192-3.248
		c-1.54,0-2.8,0.42-4.004,1.12l-0.784-1.708c1.288-0.7,3.024-1.176,4.928-1.176c3.164,0,5.152,1.344,5.152,4.76v10.248H165.753z
		 M165.753,52.757c-0.952-0.532-1.988-0.84-3.78-0.84c-2.156,0-3.444,1.036-3.444,2.884c0,2.184,1.204,3.136,2.996,3.136
		c1.904,0,3.332-0.98,4.228-2.212V52.757z"/>
	<path fill="#FFFFFF" d="M182.385,46.401v9.576c0,1.316,0.364,1.764,1.484,1.764c0.84,0,1.4-0.14,2.072-0.42l-0.14,1.82
		c-0.812,0.335-1.596,0.503-2.716,0.503c-1.82,0-2.8-0.896-2.8-3.332v-9.912h-1.82v-1.764h1.82v-4.536l2.1-1.176v5.712h3.64v1.764
		H182.385z"/>
	<path fill="#FFFFFF" d="M201.229,52.701h-9.8c0.196,3.136,1.68,5.124,4.088,5.124c1.708,0,2.716-0.504,4.06-1.4l0.98,1.512
		c-1.764,1.12-3.052,1.708-5.264,1.708c-2.688,0-5.964-1.959-5.964-7.728c0-4.676,2.576-7.588,6.076-7.588
		c3.836,0,5.908,3.024,5.908,7.224C201.312,52.057,201.284,52.365,201.229,52.701z M195.376,46.149
		c-2.184,0-3.696,1.568-3.948,4.844h7.924C199.185,48.137,197.953,46.149,195.376,46.149z"/>
	<path fill="#FFFFFF" d="M212.736,46.821c-0.589-0.336-1.231-0.56-2.212-0.56c-2.045,0-3.192,1.652-3.192,4.452v8.624h-2.1v-14.7
		h2.1v1.82c0.673-1.176,2.072-2.128,3.64-2.128c1.092,0,1.793,0.14,2.297,0.364L212.736,46.821z"/>
	<path fill="#FFFFFF" d="M233.708,59.337v-8.596c0-3.36-1.036-4.592-3.164-4.592c-1.988,0-3.275,1.344-3.275,4.592v8.596h-2.101
		v-8.596c0-3.36-1.12-4.592-3.163-4.592c-2.017,0-3.277,1.344-3.277,4.592v8.596h-2.1v-14.7h2.1v1.792
		c0.757-1.26,1.988-2.1,3.725-2.1c2.072,0,3.332,1.12,4.032,2.52c0.868-1.4,2.071-2.52,4.452-2.52c2.996,0,4.871,1.764,4.871,6.048
		v8.96H233.708z"/>
	<path fill="#FFFFFF" d="M241.604,42.005c-0.869,0-1.541-0.672-1.541-1.484c0-0.84,0.672-1.512,1.541-1.512
		c0.783,0,1.455,0.672,1.455,1.512C243.06,41.333,242.388,42.005,241.604,42.005z M240.512,59.337v-14.7h2.101v14.7H240.512z"/>
	<path fill="#FFFFFF" d="M256.612,59.337v-8.596c0-3.164-1.121-4.592-3.473-4.592c-2.044,0-3.641,1.372-3.641,4.592v8.596h-2.1
		v-14.7h2.1v1.792c0.841-1.232,2.213-2.1,4.061-2.1c3.107,0,5.152,1.82,5.152,6.048v8.96H256.612z"/>
	<path fill="#FFFFFF" d="M271.703,59.337v-1.792c-1.036,1.12-2.492,2.1-4.592,2.1c-2.296,0-4.704-1.147-4.704-4.704
		c0-3.304,2.716-4.704,5.628-4.704c1.483,0,2.8,0.364,3.668,0.84v-1.736c0-2.184-1.036-3.248-3.192-3.248
		c-1.539,0-2.8,0.42-4.004,1.12l-0.783-1.708c1.287-0.7,3.023-1.176,4.928-1.176c3.164,0,5.152,1.344,5.152,4.76v10.248H271.703z
		 M271.703,52.757c-0.952-0.532-1.987-0.84-3.78-0.84c-2.156,0-3.443,1.036-3.443,2.884c0,2.184,1.203,3.136,2.996,3.136
		c1.903,0,3.332-0.98,4.228-2.212V52.757z"/>
	<path fill="#FFFFFF" d="M278.507,59.337V40.101l2.1-1.176v20.412H278.507z"/>
	<path fill="#FFFFFF" d="M298.919,59.645c-1.849,0-3.108-0.784-4.145-1.959v5.879l-2.1,1.178V44.637h2.1v1.792
		c1.036-1.12,2.436-2.1,4.424-2.1c2.94,0,5.264,2.24,5.264,7.42C304.462,56.957,301.999,59.645,298.919,59.645z M298.667,46.149
		c-1.568,0-2.856,0.84-3.893,2.128v7.336c0.812,1.232,2.24,2.212,3.977,2.212c2.436,0,3.64-2.1,3.64-6.048
		C302.391,48.081,300.991,46.149,298.667,46.149z"/>
	<path fill="#FFFFFF" d="M313.87,59.645c-3.584,0-6.328-2.66-6.328-7.644s2.856-7.672,6.44-7.672s6.328,2.576,6.328,7.56
		C320.311,56.873,317.454,59.645,313.87,59.645z M313.927,46.149c-2.549,0-4.256,1.932-4.256,5.796c0,3.864,1.707,5.88,4.256,5.88
		c2.548,0,4.283-2.016,4.283-5.88C318.21,48.081,316.475,46.149,313.927,46.149z"/>
	<path fill="#FFFFFF" d="M331.679,46.821c-0.589-0.336-1.232-0.56-2.213-0.56c-2.044,0-3.191,1.652-3.191,4.452v8.624h-2.1v-14.7
		h2.1v1.82c0.672-1.176,2.072-2.128,3.64-2.128c1.092,0,1.792,0.14,2.296,0.364L331.679,46.821z"/>
	<path fill="#FFFFFF" d="M359.93,59.337v-8.596c0-3.36-1.036-4.592-3.164-4.592c-1.987,0-3.276,1.344-3.276,4.592v8.596h-2.1v-8.596
		c0-3.36-1.119-4.592-3.164-4.592c-2.016,0-3.275,1.344-3.275,4.592v8.596h-2.1v-14.7h2.1v1.792c0.756-1.26,1.988-2.1,3.724-2.1
		c2.071,0,3.332,1.12,4.032,2.52c0.867-1.4,2.072-2.52,4.451-2.52c2.996,0,4.873,1.764,4.873,6.048v8.96H359.93z"/>
	<path fill="#FFFFFF" d="M377.71,52.701h-9.801c0.196,3.136,1.68,5.124,4.088,5.124c1.709,0,2.717-0.504,4.061-1.4l0.98,1.512
		c-1.765,1.12-3.053,1.708-5.265,1.708c-2.688,0-5.964-1.959-5.964-7.728c0-4.676,2.576-7.588,6.076-7.588
		c3.836,0,5.908,3.024,5.908,7.224C377.794,52.057,377.766,52.365,377.71,52.701z M371.857,46.149c-2.185,0-3.696,1.568-3.948,4.844
		h7.924C375.665,48.137,374.434,46.149,371.857,46.149z"/>
	<path fill="#FFFFFF" d="M385.772,59.645c-2.016,0-3.779-0.756-5.18-1.875l1.232-1.54c1.176,1.036,2.548,1.624,4.004,1.624
		c2.016,0,2.968-0.84,2.968-2.268c0-1.204-0.868-1.876-3.472-2.996c-2.939-1.26-4.172-2.156-4.172-4.508
		c0-2.24,1.932-3.752,4.592-3.752c2.016,0,3.584,0.644,4.704,1.568l-1.177,1.54c-1.147-0.896-2.1-1.316-3.668-1.316
		c-1.539,0-2.436,0.756-2.436,1.82c0,1.232,0.756,1.736,3.248,2.856c2.771,1.26,4.396,2.072,4.396,4.704
		C390.813,58.385,388.321,59.645,385.772,59.645z"/>
	<path fill="#FFFFFF" d="M395.825,59.645c-0.98,0-1.793-0.812-1.793-1.792s0.812-1.848,1.793-1.848c0.951,0,1.791,0.868,1.791,1.848
		S396.776,59.645,395.825,59.645z"/>
	<path fill="#FFFFFF" d="M-1.376,93.246c-4.788,0-7.924-4.34-7.924-10.08c0-5.824,3.276-10.137,8.008-10.137
		c2.688,0,4.704,1.008,6.244,3.137l-1.736,1.316c-1.26-1.709-2.436-2.465-4.564-2.465c-3.36,0-5.768,3.332-5.768,8.092
		c0,4.789,2.492,8.148,5.796,8.148c2.128,0,3.584-0.951,4.844-2.576l1.512,1.316C3.608,91.929,1.48,93.246-1.376,93.246z"/>
	<path fill="#FFFFFF" d="M17.3,92.937v-1.791c-1.036,1.119-2.492,2.1-4.592,2.1c-2.296,0-4.704-1.148-4.704-4.703
		c0-3.305,2.716-4.705,5.628-4.705c1.484,0,2.8,0.363,3.668,0.84v-1.736c0-2.184-1.036-3.248-3.192-3.248
		c-1.54,0-2.8,0.42-4.004,1.121L9.32,79.105c1.288-0.699,3.024-1.176,4.928-1.176c3.164,0,5.152,1.344,5.152,4.76v10.248H17.3z
		 M17.3,86.357c-0.952-0.531-1.988-0.84-3.78-0.84c-2.156,0-3.444,1.037-3.444,2.885c0,2.184,1.204,3.135,2.996,3.135
		c1.904,0,3.332-0.979,4.228-2.211V86.357z"/>
	<path fill="#FFFFFF" d="M30.208,93.246c-1.848,0-3.108-0.783-4.144-1.961v5.881l-2.1,1.176V78.238h2.1v1.791
		c1.036-1.119,2.436-2.1,4.424-2.1c2.94,0,5.264,2.24,5.264,7.42C35.751,90.558,33.288,93.246,30.208,93.246z M29.956,79.75
		c-1.568,0-2.856,0.84-3.892,2.129v7.336c0.812,1.23,2.24,2.211,3.976,2.211c2.436,0,3.64-2.1,3.64-6.047
		C33.68,81.681,32.28,79.75,29.956,79.75z"/>
	<path fill="#FFFFFF" d="M48.043,92.937v-1.791c-1.036,1.119-2.492,2.1-4.592,2.1c-2.296,0-4.704-1.148-4.704-4.703
		c0-3.305,2.716-4.705,5.628-4.705c1.484,0,2.8,0.363,3.668,0.84v-1.736c0-2.184-1.036-3.248-3.192-3.248
		c-1.54,0-2.8,0.42-4.004,1.121l-0.784-1.709c1.288-0.699,3.024-1.176,4.928-1.176c3.164,0,5.152,1.344,5.152,4.76v10.248H48.043z
		 M48.043,86.357c-0.952-0.531-1.988-0.84-3.78-0.84c-2.156,0-3.444,1.037-3.444,2.885c0,2.184,1.204,3.135,2.996,3.135
		c1.904,0,3.332-0.979,4.228-2.211V86.357z"/>
	<path fill="#FFFFFF" d="M63.639,81.234c-1.064-0.953-2.044-1.484-3.528-1.484c-2.296,0-4.06,2.072-4.06,5.74
		c0,3.611,1.54,5.936,4.144,5.936c1.428,0,2.38-0.588,3.388-1.568l1.26,1.344c-1.232,1.262-2.66,2.045-4.732,2.045
		c-3.22,0-6.188-2.465-6.188-7.588c0-5.432,3.248-7.729,6.328-7.729c1.988,0,3.5,0.729,4.648,1.736L63.639,81.234z"/>
	<path fill="#FFFFFF" d="M69.799,75.605c-0.868,0-1.54-0.672-1.54-1.482c0-0.842,0.672-1.514,1.54-1.514
		c0.784,0,1.456,0.672,1.456,1.514C71.255,74.933,70.583,75.605,69.799,75.605z M68.707,92.937V78.238h2.1v14.699H68.707z"/>
	<path fill="#FFFFFF" d="M84.499,92.937v-1.791c-1.036,1.119-2.436,2.1-4.424,2.1c-2.94,0-5.264-2.24-5.264-7.42
		c0-5.209,2.464-7.896,5.544-7.896c1.848,0,3.108,0.785,4.144,1.961v-6.189l2.1-1.176v20.412H84.499z M84.499,81.962
		c-0.812-1.232-2.24-2.213-3.976-2.213c-2.436,0-3.64,2.1-3.64,6.049c0,3.695,1.4,5.627,3.724,5.627c1.568,0,2.856-0.84,3.892-2.127
		V81.962z"/>
	<path fill="#FFFFFF" d="M99.675,92.937v-1.791c-1.036,1.119-2.492,2.1-4.592,2.1c-2.296,0-4.704-1.148-4.704-4.703
		c0-3.305,2.716-4.705,5.628-4.705c1.484,0,2.8,0.363,3.668,0.84v-1.736c0-2.184-1.036-3.248-3.192-3.248
		c-1.54,0-2.8,0.42-4.004,1.121l-0.784-1.709c1.288-0.699,3.024-1.176,4.928-1.176c3.164,0,5.152,1.344,5.152,4.76v10.248H99.675z
		 M99.675,86.357c-0.952-0.531-1.988-0.84-3.78-0.84c-2.156,0-3.444,1.037-3.444,2.885c0,2.184,1.204,3.135,2.996,3.135
		c1.904,0,3.332-0.979,4.228-2.211V86.357z"/>
	<path fill="#FFFFFF" d="M115.243,92.937v-1.791c-1.036,1.119-2.436,2.1-4.424,2.1c-2.94,0-5.264-2.24-5.264-7.42
		c0-5.209,2.464-7.896,5.544-7.896c1.848,0,3.108,0.785,4.144,1.961v-6.189l2.1-1.176v20.412H115.243z M115.243,81.962
		c-0.812-1.232-2.24-2.213-3.976-2.213c-2.436,0-3.64,2.1-3.64,6.049c0,3.695,1.4,5.627,3.724,5.627c1.568,0,2.856-0.84,3.892-2.127
		V81.962z"/>
	<path fill="#FFFFFF" d="M138.174,92.937v-1.791c-1.036,1.119-2.436,2.1-4.424,2.1c-2.94,0-5.264-2.24-5.264-7.42
		c0-5.209,2.464-7.896,5.544-7.896c1.848,0,3.108,0.785,4.144,1.961v-6.189l2.1-1.176v20.412H138.174z M138.174,81.962
		c-0.812-1.232-2.24-2.213-3.976-2.213c-2.436,0-3.64,2.1-3.64,6.049c0,3.695,1.4,5.627,3.724,5.627c1.568,0,2.856-0.84,3.892-2.127
		V81.962z"/>
	<path fill="#FFFFFF" d="M156.038,86.302h-9.8c0.196,3.135,1.68,5.123,4.088,5.123c1.708,0,2.716-0.504,4.06-1.4l0.98,1.512
		c-1.764,1.121-3.052,1.709-5.264,1.709c-2.688,0-5.964-1.961-5.964-7.729c0-4.676,2.576-7.588,6.076-7.588
		c3.836,0,5.908,3.023,5.908,7.225C156.122,85.658,156.094,85.966,156.038,86.302z M150.186,79.75c-2.184,0-3.696,1.568-3.948,4.844
		h7.924C153.994,81.738,152.762,79.75,150.186,79.75z"/>
	<path fill="#FFFFFF" d="M176.253,81.234c-1.064-0.953-2.044-1.484-3.528-1.484c-2.296,0-4.06,2.072-4.06,5.74
		c0,3.611,1.54,5.936,4.144,5.936c1.428,0,2.38-0.588,3.388-1.568l1.26,1.344c-1.232,1.262-2.66,2.045-4.732,2.045
		c-3.22,0-6.188-2.465-6.188-7.588c0-5.432,3.248-7.729,6.328-7.729c1.988,0,3.5,0.729,4.648,1.736L176.253,81.234z"/>
	<path fill="#FFFFFF" d="M189.609,92.937v-1.791c-1.036,1.119-2.492,2.1-4.592,2.1c-2.296,0-4.704-1.148-4.704-4.703
		c0-3.305,2.716-4.705,5.628-4.705c1.484,0,2.8,0.363,3.668,0.84v-1.736c0-2.184-1.036-3.248-3.192-3.248
		c-1.54,0-2.8,0.42-4.004,1.121l-0.784-1.709c1.288-0.699,3.024-1.176,4.928-1.176c3.164,0,5.152,1.344,5.152,4.76v10.248H189.609z
		 M189.609,86.357c-0.952-0.531-1.988-0.84-3.78-0.84c-2.156,0-3.444,1.037-3.444,2.885c0,2.184,1.204,3.135,2.996,3.135
		c1.904,0,3.332-0.979,4.228-2.211V86.357z"/>
	<path fill="#FFFFFF" d="M205.177,92.937v-1.791c-1.035,1.119-2.436,2.1-4.423,2.1c-2.94,0-5.264-2.24-5.264-7.42
		c0-5.209,2.464-7.896,5.544-7.896c1.849,0,3.108,0.785,4.144,1.961v-6.189l2.101-1.176v20.412H205.177z M205.177,81.962
		c-0.812-1.232-2.24-2.213-3.976-2.213c-2.436,0-3.64,2.1-3.64,6.049c0,3.695,1.4,5.627,3.724,5.627c1.567,0,2.856-0.84,3.892-2.127
		V81.962z"/>
	<path fill="#FFFFFF" d="M220.353,92.937v-1.791c-1.035,1.119-2.492,2.1-4.592,2.1c-2.296,0-4.703-1.148-4.703-4.703
		c0-3.305,2.715-4.705,5.627-4.705c1.484,0,2.801,0.363,3.668,0.84v-1.736c0-2.184-1.035-3.248-3.191-3.248
		c-1.54,0-2.801,0.42-4.004,1.121l-0.784-1.709c1.288-0.699,3.024-1.176,4.929-1.176c3.163,0,5.151,1.344,5.151,4.76v10.248H220.353
		z M220.353,86.357c-0.951-0.531-1.987-0.84-3.779-0.84c-2.156,0-3.444,1.037-3.444,2.885c0,2.184,1.204,3.135,2.996,3.135
		c1.903,0,3.332-0.979,4.228-2.211V86.357z"/>
	<path fill="#FFFFFF" d="M240.54,93.246c-1.848,0-3.107-0.783-4.144-1.961v5.881l-2.1,1.176V78.238h2.1v1.791
		c1.036-1.119,2.437-2.1,4.425-2.1c2.939,0,5.264,2.24,5.264,7.42C246.085,90.558,243.62,93.246,240.54,93.246z M240.288,79.75
		c-1.567,0-2.855,0.84-3.892,2.129v7.336c0.812,1.23,2.24,2.211,3.976,2.211c2.437,0,3.641-2.1,3.641-6.047
		C244.013,81.681,242.612,79.75,240.288,79.75z"/>
	<path fill="#FFFFFF" d="M251.181,75.605c-0.868,0-1.54-0.672-1.54-1.482c0-0.842,0.672-1.514,1.54-1.514
		c0.783,0,1.456,0.672,1.456,1.514C252.637,74.933,251.964,75.605,251.181,75.605z M250.089,92.937V78.238h2.1v14.699H250.089z"/>
	<path fill="#FFFFFF" d="M263.22,93.246c-1.848,0-3.107-0.783-4.144-1.961v5.881l-2.1,1.176V78.238h2.1v1.791
		c1.036-1.119,2.437-2.1,4.425-2.1c2.939,0,5.264,2.24,5.264,7.42C268.765,90.558,266.3,93.246,263.22,93.246z M262.968,79.75
		c-1.567,0-2.855,0.84-3.892,2.129v7.336c0.812,1.23,2.24,2.211,3.976,2.211c2.437,0,3.641-2.1,3.641-6.047
		C266.692,81.681,265.292,79.75,262.968,79.75z"/>
	<path fill="#FFFFFF" d="M281.056,92.937v-1.791c-1.035,1.119-2.492,2.1-4.592,2.1c-2.296,0-4.703-1.148-4.703-4.703
		c0-3.305,2.715-4.705,5.627-4.705c1.484,0,2.801,0.363,3.668,0.84v-1.736c0-2.184-1.035-3.248-3.191-3.248
		c-1.54,0-2.801,0.42-4.004,1.121l-0.784-1.709c1.288-0.699,3.024-1.176,4.929-1.176c3.163,0,5.151,1.344,5.151,4.76v10.248H281.056
		z M281.056,86.357c-0.951-0.531-1.987-0.84-3.779-0.84c-2.156,0-3.444,1.037-3.444,2.885c0,2.184,1.204,3.135,2.996,3.135
		c1.903,0,3.332-0.979,4.228-2.211V86.357z"/>
	<path fill="#FFFFFF" d="M288.756,81.57c-0.979,0-1.792-0.812-1.792-1.793c0-0.979,0.812-1.848,1.792-1.848
		c0.952,0,1.792,0.869,1.792,1.848C290.548,80.757,289.708,81.57,288.756,81.57z M288.756,93.246c-0.979,0-1.792-0.812-1.792-1.793
		c0-0.979,0.812-1.848,1.792-1.848c0.952,0,1.792,0.869,1.792,1.848C290.548,92.433,289.708,93.246,288.756,93.246z"/>
	<path fill="#FFFFFF" d="M-6.584,126.537v-14.168h-3.36v-2.883c2.184-0.113,3.612-0.924,4.004-2.549h3.248v19.6H-6.584z"/>
	<path fill="#FFFFFF" d="M9.572,126.845c-5.068,0-8.204-2.324-8.204-6.188c0-2.717,1.624-4.117,3.108-4.76
		c-1.4-0.756-2.268-1.988-2.268-3.445c0-3.863,3.248-5.824,7.364-5.824c3.864,0,7.364,1.82,7.364,5.656
		c0,1.4-0.756,2.773-2.268,3.613c1.512,0.699,3.108,2.07,3.108,4.562C17.775,124.41,14.64,126.845,9.572,126.845z M9.572,117.8
		c-2.94,0-4.284,1.094-4.284,2.773c0,1.791,1.792,2.828,4.284,2.828c2.688,0,4.284-1.008,4.284-2.801
		C13.855,118.81,12.54,117.8,9.572,117.8z M9.572,110.017c-2.436,0-3.444,1.064-3.444,2.324s1.176,2.24,3.444,2.24
		c2.408,0,3.444-0.924,3.444-2.213C13.016,111.109,12.147,110.017,9.572,110.017z"/>
	<path fill="#FFFFFF" d="M23.459,126.845v-3.809c4.536,0,7.42-1.596,8.54-4.592c-1.26,0.84-2.492,1.232-4.48,1.232
		c-3.892,0-6.916-1.988-6.916-6.328c0-4.367,3.64-6.721,8.26-6.721c4.368,0,7.784,2.438,7.784,7.924
		C36.647,119.705,33.624,126.845,23.459,126.845z M28.695,110.269c-2.604,0-4.116,1.121-4.116,2.939c0,1.988,1.456,2.912,3.92,2.912
		c2.66,0,4.088-0.895,4.088-2.939C32.587,111.361,31.243,110.269,28.695,110.269z"/>
	<path fill="#FFFFFF" d="M54.931,126.845c-1.288,0-2.408-0.504-3.108-1.148v0.84h-3.864v-18.479l3.864-1.934v6.637
		c0.728-0.645,1.708-1.232,3.108-1.232c3.136,0,5.712,2.352,5.712,7.84C60.643,123.765,58.571,126.845,54.931,126.845z
		 M54.203,115.169c-1.204,0-1.82,0.504-2.38,1.232v5.543c0.588,0.812,1.484,1.26,2.604,1.26c1.484,0,2.296-1.287,2.296-3.752
		C56.723,116.429,55.715,115.169,54.203,115.169z"/>
	<path fill="#FFFFFF" d="M71.787,126.537v-0.98c-0.7,0.729-1.932,1.289-3.304,1.289c-2.744,0-5.488-1.68-5.488-5.236
		c0-3.248,2.632-4.871,5.964-4.871c1.344,0,2.212,0.279,2.828,0.588v-0.729c0-1.035-0.7-1.877-2.1-1.877
		c-1.764,0-2.688,0.254-4.032,0.98l-1.484-2.688c1.708-0.98,3.136-1.484,5.516-1.484c3.556,0,5.964,1.848,5.964,5.152v9.855H71.787z
		 M71.787,120.376c-0.672-0.42-1.316-0.615-2.688-0.615c-1.456,0-2.24,0.672-2.24,1.848c0,1.037,0.588,1.961,2.24,1.961
		c1.26,0,2.268-0.645,2.688-1.344V120.376z"/>
	<path fill="#FFFFFF" d="M87.859,116.345c-0.616-0.561-1.372-0.951-2.24-0.951c-1.512,0-2.492,0.643-2.492,3.191v7.951h-3.864
		v-14.699h3.864v0.98c0.672-0.701,1.652-1.289,3.024-1.289c1.26,0,2.212,0.504,2.716,1.037L87.859,116.345z"/>
	<path fill="#FFFFFF" d="M99.843,116.345c-0.616-0.561-1.372-0.951-2.24-0.951c-1.512,0-2.492,0.643-2.492,3.191v7.951h-3.864
		v-14.699h3.864v0.98c0.672-0.701,1.652-1.289,3.024-1.289c1.26,0,2.212,0.504,2.716,1.037L99.843,116.345z"/>
	<path fill="#FFFFFF" d="M105.302,110.632c-1.204,0-2.212-1.008-2.212-2.211c0-1.205,1.008-2.213,2.212-2.213
		c1.204,0,2.212,1.008,2.212,2.213C107.515,109.625,106.506,110.632,105.302,110.632z M103.371,126.537v-14.699h3.864v14.699
		H103.371z"/>
	<path fill="#FFFFFF" d="M111.267,126.537v-18.479l3.864-1.934v20.412H111.267z"/>
	<path fill="#FFFFFF" d="M130.95,120.433h-8.792c0.14,2.016,1.624,2.771,3.024,2.771c1.064,0,1.96-0.391,2.52-1.035l2.744,2.295
		c-1.176,1.514-3.304,2.381-5.264,2.381c-4.228,0-6.916-2.996-6.916-7.645c0-4.508,2.828-7.672,6.552-7.672
		c3.92,0,6.188,3.473,6.188,7.672C131.006,119.761,130.979,120.154,130.95,120.433z M124.623,114.89c-1.4,0-2.268,1.146-2.408,2.631
		h5.04C127.143,116.205,126.358,114.89,124.623,114.89z"/>
	<path fill="#FFFFFF" d="M139.714,126.845c-2.324,0-4.592-0.672-6.16-1.709l1.288-2.939c1.568,0.869,3.22,1.344,5.096,1.344
		c1.512,0,1.96-0.363,1.96-1.119c0-0.672-0.532-1.008-2.156-1.484c-3.528-1.064-5.796-1.932-5.796-5.039
		c0-3.053,2.436-4.369,5.88-4.369c1.848,0,3.864,0.561,5.432,1.428l-1.232,3.053c-1.456-0.783-3.052-1.176-4.284-1.176
		c-1.568,0-1.988,0.309-1.988,0.951c0,0.617,0.448,0.869,3.052,1.709c2.632,0.867,4.9,1.82,4.9,4.76
		C145.707,125.642,143.019,126.845,139.714,126.845z"/>
</g>
</svg>
