<?xml version="1.0" encoding="utf-8"?>
<!-- Generator: Adobe Illustrator 15.1.0, SVG Export Plug-In . SVG Version: 6.00 Build 0)  -->
<!DOCTYPE svg PUBLIC "-//W3C//DTD SVG 1.1//EN" "http://www.w3.org/Graphics/SVG/1.1/DTD/svg11.dtd">
<svg version="1.1" id="Layer_1" xmlns="http://www.w3.org/2000/svg" xmlns:xlink="http://www.w3.org/1999/xlink" x="0px" y="0px"
	 width="423.072px" height="193.712px" viewBox="0 -6.05 423.072 193.712" enable-background="new 0 -6.05 423.072 193.712"
	 xml:space="preserve">
<g>
	<path fill="#E1134F" d="M16.851,36.449h-7.15c0-11.351,3.8-20.901,10.3-28.352H2.2v-6.65h26.251v6.75
		C21.351,15.148,16.851,24.349,16.851,36.449z"/>
	<path fill="#E1134F" d="M49.101,36.999c-9.051,0-14.651-4.15-14.651-11.05c0-4.851,2.9-7.351,5.55-8.5
		c-2.5-1.35-4.05-3.55-4.05-6.15c0-6.9,5.8-10.401,13.151-10.401c6.9,0,13.15,3.25,13.15,10.101c0,2.5-1.35,4.95-4.05,6.451
		c2.7,1.25,5.55,3.7,5.55,8.15C63.752,32.649,58.151,36.999,49.101,36.999z M49.101,20.848c-5.25,0-7.651,1.95-7.651,4.95
		c0,3.2,3.2,5.051,7.651,5.051c4.8,0,7.65-1.8,7.65-5S54.401,20.848,49.101,20.848z M49.101,6.947c-4.351,0-6.15,1.9-6.15,4.15
		s2.1,4,6.15,4c4.3,0,6.15-1.65,6.15-3.951C55.251,8.897,53.701,6.947,49.101,6.947z"/>
	<path fill="#E1134F" d="M95.45,36.999c-6.85,0-12.301-5.6-12.301-13.65c0-8.051,5.3-13.701,12.601-13.701c5,0,8.2,2.45,10.4,5.8
		l-4.55,4.601c-1.55-2.2-3.2-3.75-6-3.75c-3.3,0-5.45,2.75-5.45,7.051c0,4.2,2.15,7,5.45,7c2.7,0,4.4-1.2,6.201-3.35l4.4,4.15
		C103.65,34.549,100.65,36.999,95.45,36.999z"/>
	<path fill="#E1134F" d="M125.799,36.449v-1.75c-1.25,1.3-3.45,2.3-5.9,2.3c-4.9,0-9.801-3-9.801-9.35
		c0-5.801,4.7-8.701,10.651-8.701c2.4,0,3.95,0.5,5.05,1.05v-1.3c0-1.85-1.25-3.35-3.75-3.35c-3.15,0-4.8,0.45-7.2,1.75l-2.65-4.8
		c3.05-1.75,5.601-2.65,9.851-2.65c6.351,0,10.651,3.3,10.651,9.201v17.601H125.799z M125.799,25.449c-1.2-0.75-2.35-1.1-4.8-1.1
		c-2.601,0-4,1.2-4,3.3c0,1.85,1.05,3.5,4,3.5c2.25,0,4.05-1.15,4.8-2.4V25.449z"/>
	<path fill="#E1134F" d="M154.499,18.248c-1.1-1-2.45-1.7-4-1.7c-2.7,0-4.45,1.15-4.45,5.701v14.201h-6.9V10.198h6.9v1.75
		c1.2-1.25,2.95-2.3,5.4-2.3c2.25,0,3.95,0.9,4.851,1.85L154.499,18.248z"/>
	<path fill="#E1134F" d="M175.899,18.248c-1.1-1-2.45-1.7-4-1.7c-2.7,0-4.45,1.15-4.45,5.701v14.201h-6.9V10.198h6.9v1.75
		c1.2-1.25,2.95-2.3,5.4-2.3c2.25,0,3.95,0.9,4.851,1.85L175.899,18.248z"/>
	<path fill="#E1134F" d="M192.449,36.999c-6.851,0-11.851-5.6-11.851-13.65c0-8.051,5-13.701,11.851-13.701
		c6.85,0,11.9,5.65,11.9,13.701C204.349,31.399,199.299,36.999,192.449,36.999z M192.449,16.298c-3.3,0-4.851,3-4.851,7.051
		c0,4.05,1.55,7,4.851,7c3.3,0,4.9-3.35,4.9-7C197.349,19.348,195.749,16.298,192.449,16.298z"/>
	<path fill="#E1134F" d="M224.349,35.399c-1.15,0.9-3.201,1.6-5.351,1.6c-4.251,0-7.001-3.3-7.001-7.9v-12.4h-4.4v-6.5h4.4v-6.75
		l6.9-3.45v10.201h6.301v6.5h-6.301v10.55c0,2.5,0.9,3.15,2.551,3.15c1.25,0,2.2-0.55,3.9-2L224.349,35.399z"/>
	<path fill="#E1134F" d="M246.247,36.449v-1.75c-1.25,1.3-3.449,2.3-5.9,2.3c-4.9,0-9.801-3-9.801-9.35
		c0-5.801,4.701-8.701,10.651-8.701c2.399,0,3.95,0.5,5.05,1.05v-1.3c0-1.85-1.25-3.35-3.75-3.35c-3.15,0-4.801,0.45-7.2,1.75
		l-2.65-4.8c3.05-1.75,5.601-2.65,9.851-2.65c6.351,0,10.65,3.3,10.65,9.201v17.601H246.247z M246.247,25.449
		c-1.199-0.75-2.35-1.1-4.8-1.1c-2.601,0-4.001,1.2-4.001,3.3c0,1.85,1.051,3.5,4.001,3.5c2.25,0,4.05-1.15,4.8-2.4V25.449z"/>
	<path fill="#E1134F" d="M275.447,36.449V22.249c0-4.701-1.601-6.101-4.45-6.101s-4.5,1.4-4.5,5.95v14.351h-6.9V10.198h6.9v1.75
		c1.199-1.25,3.4-2.3,6.15-2.3c6.7,0,9.7,4.601,9.7,12.001v14.801H275.447z"/>
	<path fill="#E1134F" d="M303.197,46.1v-11.3c-1.3,1.15-3.05,2.2-5.55,2.2c-5.601,0-10.201-4.2-10.201-14
		c0-7.851,3.7-13.351,10.201-13.351c2.3,0,4.3,0.9,5.55,2.05v-1.5h6.9v32.452L303.197,46.1z M303.197,18.398
		c-1.05-1.45-2.649-2.25-4.65-2.25c-2.649,0-4.101,2.3-4.101,6.7c0,5.4,1.801,7.651,4.501,7.651c2.149,0,3.25-0.9,4.25-2.2V18.398z"
		/>
	<path fill="#E1134F" d="M332.497,36.449v-1.75c-1.2,1.25-3.4,2.3-6.15,2.3c-6.7,0-9.701-4.6-9.701-12V10.198h6.9v14.201
		c0,4.7,1.601,6.101,4.451,6.101c2.85,0,4.5-1.4,4.5-5.951V10.198h6.9v26.251H332.497z"/>
	<path fill="#E1134F" d="M367.397,25.548h-15.701c0.25,3.601,2.9,4.951,5.4,4.951c1.9,0,3.5-0.7,4.5-1.85l4.9,4.1
		c-2.1,2.7-5.9,4.25-9.4,4.25c-7.551,0-12.351-5.35-12.351-13.65c0-8.051,5.05-13.701,11.7-13.701
		c7.001,0,11.051,6.201,11.051,13.701C367.497,24.349,367.448,25.048,367.397,25.548z M356.097,15.648c-2.5,0-4.05,2.05-4.3,4.7
		h9.001C360.597,17.998,359.197,15.648,356.097,15.648z"/>
	<path fill="#E1134F" d="M383.047,36.999c-4.15,0-8.2-1.2-11.001-3.05l2.301-5.25c2.8,1.55,5.75,2.4,9.1,2.4
		c2.701,0,3.501-0.65,3.501-2c0-1.2-0.95-1.8-3.851-2.65c-6.301-1.9-10.351-3.45-10.351-9c0-5.451,4.351-7.801,10.501-7.801
		c3.3,0,6.9,1,9.7,2.55l-2.2,5.45c-2.6-1.4-5.45-2.1-7.65-2.1c-2.8,0-3.551,0.55-3.551,1.7c0,1.1,0.801,1.55,5.451,3.05
		c4.7,1.55,8.75,3.25,8.75,8.5C393.747,34.849,388.947,36.999,383.047,36.999z"/>
	<path fill="#FFFFFF" d="M8.568,70.357c-1.848,0-3.108-0.783-4.144-1.959v5.879l-2.1,1.177V55.35h2.1v1.792
		c1.036-1.12,2.436-2.1,4.424-2.1c2.94,0,5.264,2.24,5.264,7.42C14.112,67.669,11.648,70.357,8.568,70.357z M8.316,56.861
		c-1.568,0-2.856,0.84-3.892,2.128v7.336c0.812,1.231,2.24,2.211,3.976,2.211c2.436,0,3.64-2.1,3.64-6.047
		C12.04,58.793,10.64,56.861,8.316,56.861z"/>
	<path fill="#FFFFFF" d="M27.104,70.049v-1.792c-0.84,1.232-2.212,2.1-4.06,2.1c-3.108,0-5.152-1.82-5.152-6.047v-8.96h2.1v8.595
		c0,3.164,1.12,4.592,3.472,4.592c2.044,0,3.64-1.371,3.64-4.592V55.35h2.1v14.7H27.104z"/>
	<path fill="#FFFFFF" d="M44.967,63.414h-9.8c0.196,3.136,1.68,5.123,4.088,5.123c1.708,0,2.716-0.504,4.06-1.399l0.98,1.513
		c-1.764,1.119-3.052,1.707-5.264,1.707c-2.688,0-5.964-1.959-5.964-7.728c0-4.676,2.576-7.588,6.076-7.588
		c3.836,0,5.908,3.024,5.908,7.224C45.051,62.77,45.023,63.078,44.967,63.414z M39.115,56.861c-2.184,0-3.696,1.568-3.948,4.844
		h7.924C42.923,58.849,41.691,56.861,39.115,56.861z"/>
	<path fill="#FFFFFF" d="M57.875,70.049v-1.792c-1.036,1.12-2.436,2.1-4.424,2.1c-2.94,0-5.264-2.24-5.264-7.42
		c0-5.208,2.464-7.896,5.544-7.896c1.848,0,3.108,0.784,4.144,1.96v-6.188l2.1-1.176v20.412H57.875z M57.875,59.073
		c-0.812-1.232-2.24-2.212-3.976-2.212c-2.436,0-3.64,2.1-3.64,6.048c0,3.695,1.4,5.627,3.724,5.627c1.568,0,2.856-0.84,3.892-2.127
		V59.073z"/>
	<path fill="#FFFFFF" d="M75.739,63.414h-9.8c0.196,3.136,1.68,5.123,4.088,5.123c1.708,0,2.716-0.504,4.06-1.399l0.98,1.513
		c-1.764,1.119-3.052,1.707-5.264,1.707c-2.688,0-5.964-1.959-5.964-7.728c0-4.676,2.576-7.588,6.076-7.588
		c3.836,0,5.908,3.024,5.908,7.224C75.823,62.77,75.795,63.078,75.739,63.414z M69.887,56.861c-2.184,0-3.696,1.568-3.948,4.844
		h7.924C73.695,58.849,72.463,56.861,69.887,56.861z"/>
	<path fill="#FFFFFF" d="M88.955,70.049v-8.596c0-3.164-1.12-4.592-3.472-4.592c-2.044,0-3.64,1.372-3.64,4.592v8.596h-2.1v-14.7
		h2.1v1.792c0.84-1.232,2.212-2.1,4.06-2.1c3.108,0,5.152,1.82,5.152,6.048v8.96H88.955z"/>
	<path fill="#FFFFFF" d="M103.038,70.049V50.813l2.1-1.176v20.412H103.038z"/>
	<path fill="#FFFFFF" d="M110.065,70.049V50.813l2.1-1.176v20.412H110.065z"/>
	<path fill="#FFFFFF" d="M128.069,63.414h-9.8c0.196,3.136,1.68,5.123,4.088,5.123c1.708,0,2.716-0.504,4.06-1.399l0.98,1.513
		c-1.764,1.119-3.052,1.707-5.264,1.707c-2.688,0-5.964-1.959-5.964-7.728c0-4.676,2.576-7.588,6.076-7.588
		c3.836,0,5.908,3.024,5.908,7.224C128.153,62.77,128.125,63.078,128.069,63.414z M122.217,56.861c-2.184,0-3.696,1.568-3.948,4.844
		h7.924C126.025,58.849,124.793,56.861,122.217,56.861z"/>
	<path fill="#FFFFFF" d="M137.981,70.049h-1.848l-5.264-14.7h2.24l3.752,11.564l0.224,0.699l0.224-0.699l3.752-11.564h2.184
		L137.981,70.049z"/>
	<path fill="#FFFFFF" d="M155.117,70.049v-1.792c-1.036,1.12-2.492,2.1-4.592,2.1c-2.296,0-4.704-1.147-4.704-4.703
		c0-3.305,2.716-4.705,5.628-4.705c1.484,0,2.8,0.364,3.668,0.84v-1.736c0-2.184-1.036-3.248-3.192-3.248
		c-1.54,0-2.8,0.42-4.004,1.12l-0.784-1.708c1.288-0.7,3.024-1.176,4.928-1.176c3.164,0,5.152,1.344,5.152,4.76v10.248H155.117z
		 M155.117,63.469c-0.952-0.532-1.988-0.84-3.78-0.84c-2.156,0-3.444,1.036-3.444,2.884c0,2.184,1.204,3.137,2.996,3.137
		c1.904,0,3.332-0.98,4.228-2.213V63.469z"/>
	<path fill="#FFFFFF" d="M169.285,57.533c-0.588-0.336-1.232-0.56-2.212-0.56c-2.044,0-3.192,1.652-3.192,4.452v8.624h-2.1v-14.7
		h2.1v1.82c0.672-1.176,2.072-2.128,3.64-2.128c1.092,0,1.792,0.14,2.296,0.364L169.285,57.533z"/>
	<path fill="#FFFFFF" d="M180.596,70.049V50.813l2.1-1.176v20.412H180.596z"/>
	<path fill="#FFFFFF" d="M193.028,70.357c-3.584,0-6.328-2.66-6.328-7.644c0-4.984,2.856-7.672,6.44-7.672s6.328,2.576,6.328,7.56
		C199.468,67.585,196.612,70.357,193.028,70.357z M193.084,56.861c-2.548,0-4.256,1.932-4.256,5.796s1.708,5.879,4.256,5.879
		c2.548,0,4.284-2.016,4.284-5.879S195.632,56.861,193.084,56.861z"/>
	<path fill="#FFFFFF" d="M207.392,70.357c-2.016,0-3.779-0.756-5.18-1.875l1.232-1.541c1.176,1.037,2.547,1.625,4.004,1.625
		c2.016,0,2.968-0.841,2.968-2.269c0-1.204-0.868-1.876-3.472-2.996c-2.94-1.26-4.172-2.156-4.172-4.508
		c0-2.24,1.932-3.752,4.592-3.752c2.016,0,3.584,0.644,4.703,1.568l-1.176,1.54c-1.148-0.896-2.1-1.316-3.668-1.316
		c-1.54,0-2.436,0.756-2.436,1.82c0,1.232,0.756,1.736,3.248,2.856c2.771,1.26,4.396,2.072,4.396,4.704
		C212.432,69.097,209.94,70.357,207.392,70.357z"/>
	<path fill="#FFFFFF" d="M228.308,51.625c-0.868,0-1.512,0.308-1.512,1.54v2.184h2.883v1.764h-2.883v12.936h-2.101V57.113h-2.017
		V55.35h2.017v-2.016c0-2.632,1.428-3.612,3.472-3.612c0.84,0,1.344,0.084,1.848,0.252v1.988
		C229.539,51.737,228.979,51.625,228.308,51.625z"/>
	<path fill="#FFFFFF" d="M244.771,63.414h-9.799c0.195,3.136,1.68,5.123,4.088,5.123c1.707,0,2.715-0.504,4.06-1.399l0.979,1.513
		c-1.764,1.119-3.052,1.707-5.264,1.707c-2.688,0-5.964-1.959-5.964-7.728c0-4.676,2.576-7.588,6.076-7.588
		c3.836,0,5.907,3.024,5.907,7.224C244.854,62.77,244.827,63.078,244.771,63.414z M238.919,56.861c-2.184,0-3.695,1.568-3.947,4.844
		h7.924C242.728,58.849,241.495,56.861,238.919,56.861z"/>
	<path fill="#FFFFFF" d="M256.278,57.533c-0.588-0.336-1.231-0.56-2.212-0.56c-2.044,0-3.192,1.652-3.192,4.452v8.624h-2.1v-14.7
		h2.1v1.82c0.673-1.176,2.072-2.128,3.641-2.128c1.092,0,1.792,0.14,2.296,0.364L256.278,57.533z"/>
	<path fill="#FFFFFF" d="M267.675,57.533c-0.588-0.336-1.232-0.56-2.212-0.56c-2.044,0-3.192,1.652-3.192,4.452v8.624h-2.1v-14.7
		h2.1v1.82c0.672-1.176,2.072-2.128,3.641-2.128c1.092,0,1.791,0.14,2.295,0.364L267.675,57.533z"/>
	<path fill="#FFFFFF" d="M277.11,70.357c-3.584,0-6.328-2.66-6.328-7.644c0-4.984,2.856-7.672,6.44-7.672s6.328,2.576,6.328,7.56
		C283.551,67.585,280.694,70.357,277.11,70.357z M277.167,56.861c-2.549,0-4.256,1.932-4.256,5.796s1.707,5.879,4.256,5.879
		c2.548,0,4.283-2.016,4.283-5.879S279.715,56.861,277.167,56.861z"/>
	<path fill="#FFFFFF" d="M296.347,58.345c-1.064-0.952-2.045-1.484-3.528-1.484c-2.296,0-4.06,2.072-4.06,5.74
		c0,3.612,1.539,5.935,4.144,5.935c1.428,0,2.38-0.588,3.388-1.567l1.26,1.345c-1.231,1.26-2.66,2.043-4.731,2.043
		c-3.22,0-6.188-2.463-6.188-7.587c0-5.432,3.248-7.728,6.328-7.728c1.988,0,3.5,0.728,4.648,1.736L296.347,58.345z"/>
	<path fill="#FFFFFF" d="M309.702,70.049v-1.792c-1.036,1.12-2.492,2.1-4.592,2.1c-2.297,0-4.704-1.147-4.704-4.703
		c0-3.305,2.716-4.705,5.628-4.705c1.484,0,2.8,0.364,3.668,0.84v-1.736c0-2.184-1.036-3.248-3.191-3.248
		c-1.541,0-2.801,0.42-4.004,1.12l-0.785-1.708c1.289-0.7,3.024-1.176,4.929-1.176c3.163,0,5.151,1.344,5.151,4.76v10.248H309.702z
		 M309.702,63.469c-0.952-0.532-1.988-0.84-3.779-0.84c-2.156,0-3.445,1.036-3.445,2.884c0,2.184,1.205,3.137,2.996,3.137
		c1.904,0,3.332-0.98,4.229-2.213V63.469z"/>
	<path fill="#FFFFFF" d="M323.87,57.533c-0.588-0.336-1.232-0.56-2.212-0.56c-2.044,0-3.192,1.652-3.192,4.452v8.624h-2.1v-14.7h2.1
		v1.82c0.672-1.176,2.072-2.128,3.641-2.128c1.092,0,1.791,0.14,2.295,0.364L323.87,57.533z"/>
	<path fill="#FFFFFF" d="M335.267,57.533c-0.589-0.336-1.232-0.56-2.213-0.56c-2.044,0-3.191,1.652-3.191,4.452v8.624h-2.1v-14.7
		h2.1v1.82c0.672-1.176,2.072-2.128,3.64-2.128c1.092,0,1.792,0.14,2.296,0.364L335.267,57.533z"/>
	<path fill="#FFFFFF" d="M340.39,52.717c-0.867,0-1.539-0.672-1.539-1.484c0-0.84,0.672-1.512,1.539-1.512
		c0.784,0,1.457,0.672,1.457,1.512C341.847,52.045,341.174,52.717,340.39,52.717z M339.298,70.049v-14.7h2.1v14.7H339.298z"/>
	<path fill="#FFFFFF" d="M346.325,70.049V50.813l2.101-1.176v20.412H346.325z"/>
	<path fill="#FFFFFF" d="M364.329,63.414h-9.799c0.195,3.136,1.68,5.123,4.088,5.123c1.707,0,2.715-0.504,4.06-1.399l0.979,1.513
		c-1.764,1.119-3.052,1.707-5.264,1.707c-2.688,0-5.964-1.959-5.964-7.728c0-4.676,2.576-7.588,6.076-7.588
		c3.836,0,5.907,3.024,5.907,7.224C364.413,62.77,364.386,63.078,364.329,63.414z M358.478,56.861c-2.184,0-3.695,1.568-3.947,4.844
		h7.924C362.286,58.849,361.054,56.861,358.478,56.861z"/>
	<path fill="#FFFFFF" d="M372.394,70.357c-2.016,0-3.78-0.756-5.18-1.875l1.231-1.541c1.176,1.037,2.548,1.625,4.004,1.625
		c2.017,0,2.968-0.841,2.968-2.269c0-1.204-0.867-1.876-3.472-2.996c-2.94-1.26-4.172-2.156-4.172-4.508
		c0-2.24,1.932-3.752,4.592-3.752c2.017,0,3.584,0.644,4.704,1.568l-1.176,1.54c-1.148-0.896-2.1-1.316-3.668-1.316
		c-1.541,0-2.437,0.756-2.437,1.82c0,1.232,0.757,1.736,3.248,2.856c2.772,1.26,4.396,2.072,4.396,4.704
		C377.433,69.097,374.941,70.357,372.394,70.357z"/>
	<path fill="#FFFFFF" d="M11.228,109.054v-7.196c-1.036,1.12-2.436,2.1-4.424,2.1c-2.94,0-5.264-2.239-5.264-7.42
		c0-5.208,2.464-7.896,5.544-7.896c1.848,0,3.108,0.784,4.144,1.96V88.95h2.1v18.928L11.228,109.054z M11.228,92.674
		c-0.812-1.232-2.24-2.212-3.976-2.212c-2.436,0-3.64,2.1-3.64,6.048c0,3.695,1.4,5.628,3.724,5.628c1.568,0,2.856-0.84,3.892-2.128
		V92.674z"/>
	<path fill="#FFFFFF" d="M27.104,103.65v-1.792c-0.84,1.232-2.212,2.1-4.06,2.1c-3.108,0-5.152-1.819-5.152-6.048v-8.96h2.1v8.597
		c0,3.163,1.12,4.592,3.472,4.592c2.044,0,3.64-1.372,3.64-4.592V88.95h2.1v14.7H27.104z"/>
	<path fill="#FFFFFF" d="M44.967,97.014h-9.8c0.196,3.136,1.68,5.124,4.088,5.124c1.708,0,2.716-0.504,4.06-1.4l0.98,1.512
		c-1.764,1.12-3.052,1.708-5.264,1.708c-2.688,0-5.964-1.96-5.964-7.728c0-4.676,2.576-7.588,6.076-7.588
		c3.836,0,5.908,3.023,5.908,7.224C45.051,96.37,45.023,96.678,44.967,97.014z M39.115,90.462c-2.184,0-3.696,1.567-3.948,4.844
		h7.924C42.923,92.45,41.691,90.462,39.115,90.462z"/>
	<path fill="#FFFFFF" d="M57.483,86.318c-0.868,0-1.54-0.672-1.54-1.483c0-0.841,0.672-1.513,1.54-1.513
		c0.784,0,1.456,0.672,1.456,1.513C58.939,85.646,58.267,86.318,57.483,86.318z M56.391,103.65v-14.7h2.1v14.7H56.391z"/>
	<path fill="#FFFFFF" d="M72.491,103.65v-8.596c0-3.164-1.12-4.592-3.472-4.592c-2.044,0-3.64,1.371-3.64,4.592v8.596h-2.1v-14.7
		h2.1v1.792c0.84-1.231,2.212-2.1,4.06-2.1c3.108,0,5.152,1.82,5.152,6.048v8.96H72.491z"/>
	<path fill="#FFFFFF" d="M82.71,109.054l-0.672-1.597c4.9-0.14,6.02-1.428,6.02-4.844v-0.756c-1.036,1.12-2.436,2.1-4.424,2.1
		c-2.94,0-5.264-2.239-5.264-7.42c0-5.208,2.464-7.896,5.544-7.896c1.848,0,3.108,0.784,4.144,1.96V88.95h2.1v13.384
		C90.158,106.758,88.17,108.886,82.71,109.054z M88.058,92.674c-0.812-1.232-2.24-2.212-3.976-2.212c-2.436,0-3.64,2.1-3.64,6.048
		c0,3.695,1.4,5.628,3.724,5.628c1.568,0,2.856-0.84,3.892-2.128V92.674z"/>
	<path fill="#FFFFFF" d="M102.31,91.134c-0.588-0.336-1.232-0.561-2.212-0.561c-2.044,0-3.192,1.652-3.192,4.452v8.624h-2.1v-14.7
		h2.1v1.82c0.672-1.176,2.072-2.128,3.64-2.128c1.092,0,1.792,0.14,2.296,0.364L102.31,91.134z"/>
	<path fill="#FFFFFF" d="M117.318,97.014h-9.8c0.196,3.136,1.68,5.124,4.088,5.124c1.708,0,2.716-0.504,4.06-1.4l0.98,1.512
		c-1.764,1.12-3.052,1.708-5.264,1.708c-2.688,0-5.964-1.96-5.964-7.728c0-4.676,2.576-7.588,6.076-7.588
		c3.836,0,5.908,3.023,5.908,7.224C117.402,96.37,117.374,96.678,117.318,97.014z M111.466,90.462c-2.184,0-3.696,1.567-3.948,4.844
		h7.924C115.274,92.45,114.042,90.462,111.466,90.462z"/>
	<path fill="#FFFFFF" d="M125.381,103.958c-2.016,0-3.78-0.756-5.18-1.876l1.232-1.54c1.176,1.036,2.548,1.624,4.004,1.624
		c2.016,0,2.968-0.84,2.968-2.268c0-1.204-0.868-1.876-3.472-2.996c-2.94-1.26-4.172-2.156-4.172-4.508
		c0-2.24,1.932-3.752,4.592-3.752c2.016,0,3.584,0.644,4.704,1.567l-1.176,1.54c-1.148-0.896-2.1-1.315-3.668-1.315
		c-1.54,0-2.436,0.756-2.436,1.82c0,1.231,0.756,1.735,3.248,2.855c2.772,1.26,4.396,2.072,4.396,4.704
		C130.421,102.698,127.93,103.958,125.381,103.958z"/>
	<path fill="#FFFFFF" d="M142.825,103.65v-1.792c-1.036,1.12-2.492,2.1-4.592,2.1c-2.296,0-4.704-1.147-4.704-4.703
		c0-3.305,2.716-4.704,5.628-4.704c1.484,0,2.8,0.363,3.668,0.84v-1.736c0-2.184-1.036-3.248-3.192-3.248
		c-1.54,0-2.8,0.42-4.004,1.12l-0.784-1.708c1.288-0.7,3.024-1.176,4.928-1.176c3.164,0,5.152,1.344,5.152,4.76v10.248H142.825z
		 M142.825,97.07c-0.952-0.532-1.988-0.84-3.78-0.84c-2.156,0-3.444,1.036-3.444,2.884c0,2.185,1.204,3.136,2.996,3.136
		c1.904,0,3.332-0.979,4.228-2.212V97.07z"/>
	<path fill="#FFFFFF" d="M158.701,103.65v-8.596c0-3.164-1.12-4.592-3.472-4.592c-2.044,0-3.64,1.371-3.64,4.592v8.596h-2.1v-14.7
		h2.1v1.792c0.84-1.231,2.212-2.1,4.06-2.1c3.108,0,5.152,1.82,5.152,6.048v8.96H158.701z"/>
	<path fill="#FFFFFF" d="M181.072,103.65v-1.792c-1.036,1.12-2.492,2.1-4.592,2.1c-2.296,0-4.704-1.147-4.704-4.703
		c0-3.305,2.716-4.704,5.628-4.704c1.484,0,2.8,0.363,3.668,0.84v-1.736c0-2.184-1.036-3.248-3.192-3.248
		c-1.54,0-2.8,0.42-4.004,1.12l-0.784-1.708c1.288-0.7,3.024-1.176,4.928-1.176c3.164,0,5.152,1.344,5.152,4.76v10.248H181.072z
		 M181.072,97.07c-0.952-0.532-1.988-0.84-3.78-0.84c-2.156,0-3.444,1.036-3.444,2.884c0,2.185,1.204,3.136,2.996,3.136
		c1.904,0,3.332-0.979,4.228-2.212V97.07z"/>
	<path fill="#FFFFFF" d="M195.156,103.65V84.414l2.1-1.176v20.412H195.156z"/>
	<path fill="#FFFFFF" d="M210.472,103.65v-1.792c-1.036,1.12-2.492,2.1-4.592,2.1c-2.297,0-4.704-1.147-4.704-4.703
		c0-3.305,2.716-4.704,5.628-4.704c1.484,0,2.8,0.363,3.668,0.84v-1.736c0-2.184-1.036-3.248-3.191-3.248
		c-1.541,0-2.801,0.42-4.004,1.12l-0.785-1.708c1.289-0.7,3.024-1.176,4.929-1.176c3.163,0,5.151,1.344,5.151,4.76v10.248H210.472z
		 M210.472,97.07c-0.952-0.532-1.988-0.84-3.779-0.84c-2.156,0-3.445,1.036-3.445,2.884c0,2.185,1.205,3.136,2.996,3.136
		c1.904,0,3.332-0.979,4.229-2.212V97.07z"/>
	<path fill="#FFFFFF" d="M227.104,90.714v9.575c0,1.316,0.364,1.765,1.483,1.765c0.84,0,1.4-0.141,2.072-0.42l-0.141,1.819
		c-0.812,0.336-1.596,0.504-2.715,0.504c-1.82,0-2.801-0.896-2.801-3.332v-9.911h-1.82V88.95h1.82v-4.536l2.101-1.176v5.712h3.64
		v1.765H227.104z"/>
	<path fill="#FFFFFF" d="M245.947,97.014h-9.8c0.195,3.136,1.68,5.124,4.088,5.124c1.708,0,2.716-0.504,4.061-1.4l0.979,1.512
		c-1.765,1.12-3.052,1.708-5.265,1.708c-2.688,0-5.963-1.96-5.963-7.728c0-4.676,2.576-7.588,6.075-7.588
		c3.837,0,5.908,3.023,5.908,7.224C246.031,96.37,246.003,96.678,245.947,97.014z M240.095,90.462c-2.184,0-3.695,1.567-3.947,4.844
		h7.924C243.903,92.45,242.671,90.462,240.095,90.462z"/>
	<path fill="#FFFFFF" d="M257.455,91.134c-0.589-0.336-1.231-0.561-2.212-0.561c-2.045,0-3.192,1.652-3.192,4.452v8.624h-2.1v-14.7
		h2.1v1.82c0.673-1.176,2.072-2.128,3.64-2.128c1.092,0,1.793,0.14,2.297,0.364L257.455,91.134z"/>
	<path fill="#FFFFFF" d="M278.427,103.65v-8.596c0-3.36-1.036-4.592-3.164-4.592c-1.988,0-3.275,1.344-3.275,4.592v8.596h-2.101
		v-8.596c0-3.36-1.12-4.592-3.163-4.592c-2.017,0-3.277,1.344-3.277,4.592v8.596h-2.1v-14.7h2.1v1.792
		c0.757-1.26,1.988-2.1,3.725-2.1c2.072,0,3.332,1.12,4.032,2.52c0.868-1.399,2.071-2.52,4.452-2.52
		c2.996,0,4.871,1.764,4.871,6.048v8.96H278.427z"/>
	<path fill="#FFFFFF" d="M286.323,86.318c-0.869,0-1.541-0.672-1.541-1.483c0-0.841,0.672-1.513,1.541-1.513
		c0.783,0,1.455,0.672,1.455,1.513C287.778,85.646,287.106,86.318,286.323,86.318z M285.23,103.65v-14.7h2.101v14.7H285.23z"/>
	<path fill="#FFFFFF" d="M301.331,103.65v-8.596c0-3.164-1.121-4.592-3.473-4.592c-2.044,0-3.641,1.371-3.641,4.592v8.596h-2.1
		v-14.7h2.1v1.792c0.841-1.231,2.213-2.1,4.061-2.1c3.107,0,5.152,1.82,5.152,6.048v8.96H301.331z"/>
	<path fill="#FFFFFF" d="M316.422,103.65v-1.792c-1.036,1.12-2.492,2.1-4.592,2.1c-2.296,0-4.704-1.147-4.704-4.703
		c0-3.305,2.716-4.704,5.628-4.704c1.483,0,2.8,0.363,3.668,0.84v-1.736c0-2.184-1.036-3.248-3.192-3.248
		c-1.539,0-2.8,0.42-4.004,1.12l-0.783-1.708c1.287-0.7,3.023-1.176,4.928-1.176c3.164,0,5.152,1.344,5.152,4.76v10.248H316.422z
		 M316.422,97.07c-0.952-0.532-1.987-0.84-3.78-0.84c-2.156,0-3.443,1.036-3.443,2.884c0,2.185,1.203,3.136,2.996,3.136
		c1.903,0,3.332-0.979,4.228-2.212V97.07z"/>
	<path fill="#FFFFFF" d="M323.226,103.65V84.414l2.1-1.176v20.412H323.226z"/>
	<path fill="#FFFFFF" d="M331.149,103.958c-0.98,0-1.792-0.812-1.792-1.792c0-0.979,0.812-1.848,1.792-1.848
		c0.952,0,1.792,0.868,1.792,1.848C332.941,103.146,332.102,103.958,331.149,103.958z"/>
	<path fill="#FFFFFF" d="M9.66,137.557c-4.788,0-7.924-4.34-7.924-10.079c0-5.824,3.276-10.137,8.008-10.137
		c2.688,0,4.704,1.008,6.244,3.137l-1.736,1.315c-1.26-1.708-2.436-2.464-4.564-2.464c-3.36,0-5.768,3.332-5.768,8.092
		c0,4.788,2.492,8.148,5.796,8.148c2.128,0,3.584-0.952,4.844-2.576l1.512,1.315C14.644,136.242,12.516,137.557,9.66,137.557z"/>
	<path fill="#FFFFFF" d="M28.336,137.25v-1.792c-1.036,1.12-2.492,2.1-4.592,2.1c-2.296,0-4.704-1.147-4.704-4.703
		c0-3.305,2.716-4.704,5.628-4.704c1.484,0,2.8,0.363,3.668,0.84v-1.736c0-2.184-1.036-3.248-3.192-3.248
		c-1.54,0-2.8,0.42-4.004,1.12l-0.784-1.708c1.288-0.7,3.024-1.176,4.928-1.176c3.164,0,5.152,1.344,5.152,4.76v10.248H28.336z
		 M28.336,130.669c-0.952-0.532-1.988-0.84-3.78-0.84c-2.156,0-3.444,1.036-3.444,2.884c0,2.185,1.204,3.136,2.996,3.136
		c1.904,0,3.332-0.979,4.228-2.212V130.669z"/>
	<path fill="#FFFFFF" d="M41.244,137.557c-1.848,0-3.108-0.783-4.144-1.96v5.88l-2.1,1.177v-20.104h2.1v1.792
		c1.036-1.12,2.436-2.1,4.424-2.1c2.94,0,5.264,2.24,5.264,7.42C46.788,134.87,44.324,137.557,41.244,137.557z M40.992,124.062
		c-1.568,0-2.856,0.84-3.892,2.128v7.336c0.812,1.231,2.24,2.212,3.976,2.212c2.436,0,3.64-2.101,3.64-6.048
		C44.716,125.994,43.316,124.062,40.992,124.062z"/>
	<path fill="#FFFFFF" d="M59.08,137.25v-1.792c-1.036,1.12-2.492,2.1-4.592,2.1c-2.296,0-4.704-1.147-4.704-4.703
		c0-3.305,2.716-4.704,5.628-4.704c1.484,0,2.8,0.363,3.668,0.84v-1.736c0-2.184-1.036-3.248-3.192-3.248
		c-1.54,0-2.8,0.42-4.004,1.12l-0.784-1.708c1.288-0.7,3.024-1.176,4.928-1.176c3.164,0,5.152,1.344,5.152,4.76v10.248H59.08z
		 M59.08,130.669c-0.952-0.532-1.988-0.84-3.78-0.84c-2.156,0-3.444,1.036-3.444,2.884c0,2.185,1.204,3.136,2.996,3.136
		c1.904,0,3.332-0.979,4.228-2.212V130.669z"/>
	<path fill="#FFFFFF" d="M74.675,125.545c-1.064-0.952-2.044-1.483-3.528-1.483c-2.296,0-4.06,2.071-4.06,5.739
		c0,3.612,1.54,5.937,4.144,5.937c1.428,0,2.38-0.588,3.388-1.568l1.26,1.344c-1.232,1.261-2.66,2.044-4.732,2.044
		c-3.22,0-6.188-2.464-6.188-7.588c0-5.432,3.248-7.728,6.328-7.728c1.988,0,3.5,0.728,4.648,1.736L74.675,125.545z"/>
	<path fill="#FFFFFF" d="M80.835,119.917c-0.868,0-1.54-0.672-1.54-1.483c0-0.841,0.672-1.513,1.54-1.513
		c0.784,0,1.456,0.672,1.456,1.513C82.292,119.246,81.619,119.917,80.835,119.917z M79.743,137.25v-14.7h2.1v14.7H79.743z"/>
	<path fill="#FFFFFF" d="M95.535,137.25v-1.792c-1.036,1.12-2.436,2.1-4.424,2.1c-2.94,0-5.264-2.239-5.264-7.42
		c0-5.208,2.464-7.896,5.544-7.896c1.848,0,3.108,0.784,4.144,1.96v-6.188l2.1-1.176v20.412H95.535z M95.535,126.274
		c-0.812-1.232-2.24-2.212-3.976-2.212c-2.436,0-3.64,2.1-3.64,6.048c0,3.695,1.4,5.628,3.724,5.628c1.568,0,2.856-0.84,3.892-2.128
		V126.274z"/>
	<path fill="#FFFFFF" d="M110.711,137.25v-1.792c-1.036,1.12-2.492,2.1-4.592,2.1c-2.296,0-4.704-1.147-4.704-4.703
		c0-3.305,2.716-4.704,5.628-4.704c1.484,0,2.8,0.363,3.668,0.84v-1.736c0-2.184-1.036-3.248-3.192-3.248
		c-1.54,0-2.8,0.42-4.004,1.12l-0.784-1.708c1.288-0.7,3.024-1.176,4.928-1.176c3.164,0,5.152,1.344,5.152,4.76v10.248H110.711z
		 M110.711,130.669c-0.952-0.532-1.988-0.84-3.78-0.84c-2.156,0-3.444,1.036-3.444,2.884c0,2.185,1.204,3.136,2.996,3.136
		c1.904,0,3.332-0.979,4.228-2.212V130.669z"/>
	<path fill="#FFFFFF" d="M126.279,137.25v-1.792c-1.036,1.12-2.436,2.1-4.424,2.1c-2.94,0-5.264-2.239-5.264-7.42
		c0-5.208,2.464-7.896,5.544-7.896c1.848,0,3.108,0.784,4.144,1.96v-6.188l2.1-1.176v20.412H126.279z M126.279,126.274
		c-0.812-1.232-2.24-2.212-3.976-2.212c-2.436,0-3.64,2.1-3.64,6.048c0,3.695,1.4,5.628,3.724,5.628c1.568,0,2.856-0.84,3.892-2.128
		V126.274z"/>
	<path fill="#FFFFFF" d="M149.21,137.25v-1.792c-1.036,1.12-2.436,2.1-4.424,2.1c-2.94,0-5.264-2.239-5.264-7.42
		c0-5.208,2.464-7.896,5.544-7.896c1.848,0,3.108,0.784,4.144,1.96v-6.188l2.1-1.176v20.412H149.21z M149.21,126.274
		c-0.812-1.232-2.24-2.212-3.976-2.212c-2.436,0-3.64,2.1-3.64,6.048c0,3.695,1.4,5.628,3.724,5.628c1.568,0,2.856-0.84,3.892-2.128
		V126.274z"/>
	<path fill="#FFFFFF" d="M167.074,130.614h-9.8c0.196,3.136,1.68,5.124,4.088,5.124c1.708,0,2.716-0.504,4.06-1.4l0.98,1.512
		c-1.764,1.12-3.052,1.708-5.264,1.708c-2.688,0-5.964-1.96-5.964-7.728c0-4.676,2.576-7.588,6.076-7.588
		c3.836,0,5.908,3.023,5.908,7.224C167.158,129.969,167.13,130.278,167.074,130.614z M161.222,124.062
		c-2.184,0-3.696,1.567-3.948,4.844h7.924C165.03,126.049,163.798,124.062,161.222,124.062z"/>
	<path fill="#FFFFFF" d="M187.29,125.545c-1.064-0.952-2.044-1.483-3.528-1.483c-2.296,0-4.06,2.071-4.06,5.739
		c0,3.612,1.54,5.937,4.144,5.937c1.428,0,2.38-0.588,3.388-1.568l1.26,1.344c-1.232,1.261-2.66,2.044-4.732,2.044
		c-3.22,0-6.188-2.464-6.188-7.588c0-5.432,3.248-7.728,6.328-7.728c1.988,0,3.5,0.728,4.648,1.736L187.29,125.545z"/>
	<path fill="#FFFFFF" d="M200.646,137.25v-1.792c-1.036,1.12-2.492,2.1-4.592,2.1c-2.296,0-4.704-1.147-4.704-4.703
		c0-3.305,2.716-4.704,5.628-4.704c1.484,0,2.8,0.363,3.668,0.84v-1.736c0-2.184-1.036-3.248-3.192-3.248
		c-1.54,0-2.8,0.42-4.004,1.12l-0.784-1.708c1.288-0.7,3.024-1.176,4.928-1.176c3.164,0,5.151,1.344,5.151,4.76v10.248H200.646z
		 M200.646,130.669c-0.952-0.532-1.988-0.84-3.78-0.84c-2.156,0-3.444,1.036-3.444,2.884c0,2.185,1.204,3.136,2.996,3.136
		c1.904,0,3.332-0.979,4.228-2.212V130.669z"/>
	<path fill="#FFFFFF" d="M216.214,137.25v-1.792c-1.037,1.12-2.437,2.1-4.424,2.1c-2.941,0-5.265-2.239-5.265-7.42
		c0-5.208,2.464-7.896,5.544-7.896c1.848,0,3.107,0.784,4.145,1.96v-6.188l2.1-1.176v20.412H216.214z M216.214,126.274
		c-0.812-1.232-2.24-2.212-3.977-2.212c-2.436,0-3.641,2.1-3.641,6.048c0,3.695,1.4,5.628,3.725,5.628
		c1.568,0,2.855-0.84,3.893-2.128V126.274z"/>
	<path fill="#FFFFFF" d="M231.39,137.25v-1.792c-1.037,1.12-2.492,2.1-4.592,2.1c-2.297,0-4.705-1.147-4.705-4.703
		c0-3.305,2.717-4.704,5.629-4.704c1.483,0,2.799,0.363,3.668,0.84v-1.736c0-2.184-1.037-3.248-3.192-3.248
		c-1.54,0-2.8,0.42-4.004,1.12l-0.784-1.708c1.288-0.7,3.023-1.176,4.928-1.176c3.164,0,5.152,1.344,5.152,4.76v10.248H231.39z
		 M231.39,130.669c-0.953-0.532-1.988-0.84-3.78-0.84c-2.156,0-3.444,1.036-3.444,2.884c0,2.185,1.204,3.136,2.996,3.136
		c1.904,0,3.332-0.979,4.229-2.212V130.669z"/>
	<path fill="#FFFFFF" d="M254.265,125.545c-1.064-0.952-2.044-1.483-3.527-1.483c-2.297,0-4.061,2.071-4.061,5.739
		c0,3.612,1.54,5.937,4.145,5.937c1.428,0,2.379-0.588,3.388-1.568l1.26,1.344c-1.231,1.261-2.66,2.044-4.731,2.044
		c-3.221,0-6.188-2.464-6.188-7.588c0-5.432,3.248-7.728,6.328-7.728c1.987,0,3.5,0.728,4.647,1.736L254.265,125.545z"/>
	<path fill="#FFFFFF" d="M267.62,137.25v-1.792c-1.035,1.12-2.492,2.1-4.592,2.1c-2.296,0-4.703-1.147-4.703-4.703
		c0-3.305,2.715-4.704,5.627-4.704c1.484,0,2.801,0.363,3.668,0.84v-1.736c0-2.184-1.035-3.248-3.191-3.248
		c-1.54,0-2.801,0.42-4.004,1.12l-0.784-1.708c1.288-0.7,3.024-1.176,4.929-1.176c3.163,0,5.151,1.344,5.151,4.76v10.248H267.62z
		 M267.62,130.669c-0.951-0.532-1.987-0.84-3.779-0.84c-2.156,0-3.444,1.036-3.444,2.884c0,2.185,1.204,3.136,2.996,3.136
		c1.903,0,3.332-0.979,4.228-2.212V130.669z"/>
	<path fill="#FFFFFF" d="M281.788,124.734c-0.588-0.336-1.231-0.561-2.212-0.561c-2.044,0-3.192,1.652-3.192,4.452v8.624h-2.1v-14.7
		h2.1v1.82c0.673-1.176,2.072-2.128,3.641-2.128c1.092,0,1.792,0.14,2.296,0.364L281.788,124.734z"/>
	<path fill="#FFFFFF" d="M293.185,124.734c-0.588-0.336-1.232-0.561-2.212-0.561c-2.044,0-3.192,1.652-3.192,4.452v8.624h-2.1v-14.7
		h2.1v1.82c0.672-1.176,2.072-2.128,3.641-2.128c1.092,0,1.791,0.14,2.295,0.364L293.185,124.734z"/>
	<path fill="#FFFFFF" d="M302.62,137.557c-3.584,0-6.328-2.659-6.328-7.644s2.856-7.672,6.44-7.672s6.328,2.576,6.328,7.56
		C309.061,134.786,306.204,137.557,302.62,137.557z M302.677,124.062c-2.549,0-4.256,1.932-4.256,5.796
		c0,3.863,1.707,5.88,4.256,5.88c2.548,0,4.283-2.017,4.283-5.88C306.96,125.994,305.225,124.062,302.677,124.062z"/>
	<path fill="#FFFFFF" d="M315.612,124.314v9.575c0,1.316,0.363,1.765,1.484,1.765c0.84,0,1.399-0.141,2.071-0.42l-0.14,1.819
		c-0.812,0.336-1.596,0.504-2.717,0.504c-1.819,0-2.799-0.896-2.799-3.332v-9.911h-1.82v-1.765h1.82v-4.536l2.1-1.176v5.712h3.64
		v1.765H315.612z"/>
	<path fill="#FFFFFF" d="M331.769,137.25v-1.792c-1.037,1.12-2.492,2.1-4.592,2.1c-2.297,0-4.705-1.147-4.705-4.703
		c0-3.305,2.717-4.704,5.629-4.704c1.483,0,2.799,0.363,3.668,0.84v-1.736c0-2.184-1.037-3.248-3.192-3.248
		c-1.54,0-2.8,0.42-4.004,1.12l-0.784-1.708c1.288-0.7,3.023-1.176,4.928-1.176c3.164,0,5.152,1.344,5.152,4.76v10.248H331.769z
		 M331.769,130.669c-0.953-0.532-1.988-0.84-3.78-0.84c-2.156,0-3.444,1.036-3.444,2.884c0,2.185,1.204,3.136,2.996,3.136
		c1.904,0,3.332-0.979,4.229-2.212V130.669z"/>
	<path fill="#FFFFFF" d="M347.644,137.25v-8.596c0-3.164-1.119-4.592-3.472-4.592c-2.044,0-3.64,1.371-3.64,4.592v8.596h-2.1v-14.7
		h2.1v1.792c0.84-1.231,2.211-2.1,4.06-2.1c3.108,0,5.151,1.82,5.151,6.048v8.96H347.644z"/>
	<path fill="#FFFFFF" d="M363.212,142.654v-7.196c-1.037,1.12-2.437,2.1-4.424,2.1c-2.941,0-5.265-2.239-5.265-7.42
		c0-5.208,2.464-7.896,5.544-7.896c1.848,0,3.107,0.784,4.145,1.96v-1.652h2.1v18.928L363.212,142.654z M363.212,126.274
		c-0.812-1.232-2.24-2.212-3.977-2.212c-2.436,0-3.641,2.1-3.641,6.048c0,3.695,1.4,5.628,3.725,5.628
		c1.568,0,2.855-0.84,3.893-2.128V126.274z"/>
	<path fill="#FFFFFF" d="M379.087,137.25v-1.792c-0.84,1.232-2.212,2.1-4.06,2.1c-3.108,0-5.152-1.819-5.152-6.048v-8.96h2.101
		v8.597c0,3.163,1.119,4.592,3.472,4.592c2.044,0,3.64-1.372,3.64-4.592v-8.597h2.1v14.7H379.087z"/>
	<path fill="#FFFFFF" d="M396.95,130.614h-9.799c0.195,3.136,1.68,5.124,4.088,5.124c1.707,0,2.715-0.504,4.06-1.4l0.979,1.512
		c-1.764,1.12-3.052,1.708-5.264,1.708c-2.688,0-5.964-1.96-5.964-7.728c0-4.676,2.576-7.588,6.076-7.588
		c3.836,0,5.907,3.023,5.907,7.224C397.034,129.969,397.007,130.278,396.95,130.614z M391.099,124.062
		c-2.184,0-3.695,1.567-3.947,4.844h7.924C394.907,126.049,393.675,124.062,391.099,124.062z"/>
	<path fill="#FFFFFF" d="M401.99,125.881c-0.979,0-1.792-0.812-1.792-1.792c0-0.979,0.812-1.848,1.792-1.848
		c0.952,0,1.792,0.868,1.792,1.848C403.782,125.07,402.942,125.881,401.99,125.881z M401.99,137.557
		c-0.979,0-1.792-0.812-1.792-1.792c0-0.979,0.812-1.848,1.792-1.848c0.952,0,1.792,0.868,1.792,1.848
		C403.782,136.746,402.942,137.557,401.99,137.557z"/>
	<path fill="#FFFFFF" d="M9.1,171.157c-4.368,0-7.784-2.436-7.784-7.924c0-5.151,3.024-12.292,13.188-12.292v3.809
		c-4.536,0-7.42,1.596-8.54,4.592c1.26-0.84,2.492-1.232,4.48-1.232c3.892,0,6.916,1.988,6.916,6.328
		C17.36,168.805,13.72,171.157,9.1,171.157z M9.464,161.666c-2.66,0-4.088,0.896-4.088,2.939c0,1.82,1.344,2.912,3.892,2.912
		c2.604,0,4.116-1.12,4.116-2.94C13.384,162.589,11.928,161.666,9.464,161.666z"/>
	<path fill="#FFFFFF" d="M27.636,171.157c-2.828,0-5.18-0.56-7.644-2.1l1.904-3.332c1.82,1.036,3.752,1.652,5.74,1.652
		c2.66,0,4.2-1.12,4.2-3.221c0-2.044-1.484-2.911-3.332-2.911c-1.764,0-2.94,0.531-3.864,1.176l-3.724-1.372l0.672-9.8h13.048v3.779
		H25.2l-0.224,3.389c1.092-0.588,2.268-0.896,4.116-0.896c4.396,0,6.72,2.8,6.72,6.496
		C35.812,168.721,32.452,171.157,27.636,171.157z"/>
	<path fill="#FFFFFF" d="M46.872,171.157c-5.348,0-8.204-4.144-8.204-10.107s2.884-10.108,8.232-10.108
		c5.348,0,8.232,4.088,8.232,10.052C55.132,166.958,52.22,171.157,46.872,171.157z M46.872,154.777
		c-2.996,0-4.228,2.717-4.228,6.216c0,3.5,1.26,6.328,4.256,6.328s4.256-2.771,4.256-6.271S49.868,154.777,46.872,154.777z"/>
	<path fill="#FFFFFF" d="M73.5,171.157c-1.288,0-2.408-0.504-3.108-1.147v0.84h-3.864V152.37l3.864-1.933v6.636
		c0.728-0.644,1.708-1.231,3.108-1.231c3.136,0,5.712,2.352,5.712,7.84C79.211,168.077,77.139,171.157,73.5,171.157z
		 M72.771,159.481c-1.204,0-1.82,0.504-2.38,1.232v5.544c0.588,0.812,1.484,1.26,2.604,1.26c1.484,0,2.296-1.288,2.296-3.752
		C75.292,160.741,74.283,159.481,72.771,159.481z"/>
	<path fill="#FFFFFF" d="M90.355,170.849v-0.98c-0.7,0.729-1.932,1.288-3.304,1.288c-2.744,0-5.488-1.68-5.488-5.235
		c0-3.248,2.632-4.872,5.964-4.872c1.344,0,2.212,0.28,2.828,0.588v-0.729c0-1.035-0.7-1.876-2.1-1.876
		c-1.764,0-2.688,0.253-4.032,0.98l-1.484-2.688c1.708-0.979,3.136-1.483,5.516-1.483c3.556,0,5.964,1.848,5.964,5.151v9.856H90.355
		z M90.355,164.689c-0.672-0.42-1.316-0.616-2.688-0.616c-1.456,0-2.24,0.673-2.24,1.849c0,1.036,0.588,1.96,2.24,1.96
		c1.26,0,2.268-0.645,2.688-1.344V164.689z"/>
	<path fill="#FFFFFF" d="M106.427,160.657c-0.616-0.56-1.372-0.951-2.24-0.951c-1.512,0-2.492,0.644-2.492,3.191v7.952h-3.864v-14.7
		h3.864v0.98c0.672-0.7,1.652-1.288,3.024-1.288c1.26,0,2.212,0.504,2.716,1.036L106.427,160.657z"/>
	<path fill="#FFFFFF" d="M118.411,160.657c-0.616-0.56-1.372-0.951-2.24-0.951c-1.512,0-2.492,0.644-2.492,3.191v7.952h-3.864v-14.7
		h3.864v0.98c0.672-0.7,1.652-1.288,3.024-1.288c1.26,0,2.212,0.504,2.716,1.036L118.411,160.657z"/>
	<path fill="#FFFFFF" d="M123.871,154.945c-1.204,0-2.212-1.008-2.212-2.212s1.008-2.212,2.212-2.212
		c1.204,0,2.212,1.008,2.212,2.212S125.075,154.945,123.871,154.945z M121.939,170.849v-14.7h3.864v14.7H121.939z"/>
	<path fill="#FFFFFF" d="M129.835,170.849V152.37l3.864-1.933v20.412H129.835z"/>
	<path fill="#FFFFFF" d="M149.519,164.746h-8.792c0.14,2.016,1.624,2.771,3.024,2.771c1.064,0,1.96-0.392,2.52-1.036l2.744,2.296
		c-1.176,1.513-3.304,2.38-5.264,2.38c-4.228,0-6.916-2.996-6.916-7.644c0-4.508,2.828-7.672,6.552-7.672
		c3.92,0,6.188,3.472,6.188,7.672C149.575,164.073,149.547,164.465,149.519,164.746z M143.191,159.202
		c-1.4,0-2.268,1.147-2.408,2.632h5.04C145.711,160.517,144.927,159.202,143.191,159.202z"/>
	<path fill="#FFFFFF" d="M158.283,171.157c-2.324,0-4.592-0.672-6.16-1.708l1.288-2.939c1.568,0.868,3.22,1.344,5.096,1.344
		c1.512,0,1.96-0.364,1.96-1.12c0-0.672-0.532-1.008-2.156-1.483c-3.528-1.064-5.796-1.933-5.796-5.04
		c0-3.053,2.436-4.368,5.88-4.368c1.848,0,3.864,0.56,5.432,1.428l-1.232,3.052c-1.456-0.783-3.052-1.176-4.284-1.176
		c-1.568,0-1.988,0.309-1.988,0.952c0,0.616,0.448,0.868,3.052,1.708c2.632,0.868,4.9,1.82,4.9,4.76
		C164.275,169.954,161.587,171.157,158.283,171.157z"/>
</g>
</svg>
