<?xml version="1.0" encoding="utf-8"?>
<!-- Generator: Adobe Illustrator 15.1.0, SVG Export Plug-In . SVG Version: 6.00 Build 0)  -->
<!DOCTYPE svg PUBLIC "-//W3C//DTD SVG 1.1//EN" "http://www.w3.org/Graphics/SVG/1.1/DTD/svg11.dtd">
<svg version="1.1" id="Layer_1" xmlns="http://www.w3.org/2000/svg" xmlns:xlink="http://www.w3.org/1999/xlink" x="0px" y="0px"
	 width="453.447px" height="671.213px" viewBox="0 0 453.447 671.213" enable-background="new 0 0 453.447 671.213"
	 xml:space="preserve">
<path fill="none" stroke="#FFF200" stroke-width="3" stroke-miterlimit="10" d="M354.211,671.024l11.277-119.017
	c0,0,2.057-7.101,13.683-17.072c11.624-9.972,23.32-35.604,25.858-58.353c2.535-22.748,6.078-70.97,6.078-70.97
	s3.613-23.546,12.008-45.974c8.396-22.429,27.832-88.75,27.832-124.955v-71.732c0,0-3.353-32.718-29.562-34.641
	c-26.206-1.92-277.827-18.64-277.827-18.64s-15.717,1.939-23.529,7.75c-7.811,5.813-19.026,3.875-27.322,3.875l-38.072-3.39
	c0,0-19.521-5.326-18.545-30.515c0.521-13.424,3.817-53.095,6.779-87.22"/>
<path fill="none" stroke="#E1134F" stroke-width="3" stroke-miterlimit="10" d="M33.343,0.173l-6.445,97.805
	c-1.057,16.042,11.156,29.914,27.318,31.028l361.646,24.962c16.98,1.173,30.151,15.182,30.151,32.07v53.836
	c0,3.678-0.477,7.34-1.417,10.896l-14.513,54.938c-2.522,9.544-7.373,18.329-14.126,25.576l-62.205,66.701"/>
<path fill="none" stroke="#E1134F" stroke-width="3" stroke-miterlimit="10" d="M29.674,0.173L7.879,280.159
	c0,0-0.705,3.238-4.059,6.727s-4.399,12.75,2.765,10.535c0,0,2.293-9.869,11.812-4.057c7.511,4.588,21.866,17.771,27.583,23.125
	c1.585,1.487,2.674,3.416,3.123,5.535l1.615,7.608c0.412,1.944,1.314,3.752,2.623,5.255l8.906,10.232
	c1.918,2.204,4.682,3.509,7.616,3.598l92.78,2.77h234.488"/>
</svg>
