<?xml version="1.0" encoding="utf-8"?>
<!-- Generator: Adobe Illustrator 15.1.0, SVG Export Plug-In . SVG Version: 6.00 Build 0)  -->
<!DOCTYPE svg PUBLIC "-//W3C//DTD SVG 1.1//EN" "http://www.w3.org/Graphics/SVG/1.1/DTD/svg11.dtd">
<svg version="1.1" id="Layer_1" xmlns="http://www.w3.org/2000/svg" xmlns:xlink="http://www.w3.org/1999/xlink" x="0px" y="0px"
	 width="453.447px" height="671.213px" viewBox="0 0 453.447 671.213" enable-background="new 0 0 453.447 671.213"
	 xml:space="preserve">
<path fill="none" stroke="#FFF200" stroke-width="3" stroke-miterlimit="10" d="M354.211,671.024l11.277-119.018
	c0,0,2.057-7.101,13.683-17.072c11.624-9.972,23.32-35.604,25.858-58.353c2.534-22.748,6.077-70.97,6.077-70.97
	s3.613-23.547,12.009-45.975c8.396-22.429,27.832-88.75,27.832-124.955v-71.732c0,0-3.354-32.718-29.562-34.641
	c-26.206-1.92-277.827-18.64-277.827-18.64s-15.717,1.939-23.529,7.75c-7.811,5.813-19.026,3.875-27.322,3.875l-38.072-3.39
	c0,0-19.521-5.326-18.545-30.515c0.521-13.424,3.817-53.095,6.779-87.22"/>
<path fill="none" stroke="#E1134F" stroke-width="3" stroke-linejoin="round" stroke-miterlimit="10" d="M29.674,0.173
	L7.879,280.159c0,0-0.705,3.238-4.059,6.727c-3.354,3.489-4.399,12.75,2.765,10.535c0,0,2.293-9.869,11.812-4.057
	c7.511,4.588,21.866,17.771,27.583,23.125c1.585,1.487,2.674,3.416,3.123,5.535l1.615,7.608c0.412,1.944,1.314,3.752,2.623,5.255
	l8.906,10.232c1.918,2.204,4.682,3.509,7.616,3.598l92.78,2.771h234.488l-0.344,0.354l-43.035,46.145"/>
</svg>
