<?xml version="1.0" encoding="utf-8"?>
<!-- Generator: Adobe Illustrator 15.1.0, SVG Export Plug-In . SVG Version: 6.00 Build 0)  -->
<!DOCTYPE svg PUBLIC "-//W3C//DTD SVG 1.1//EN" "http://www.w3.org/Graphics/SVG/1.1/DTD/svg11.dtd">
<svg version="1.1" id="Layer_1" xmlns="http://www.w3.org/2000/svg" xmlns:xlink="http://www.w3.org/1999/xlink" x="0px" y="0px"
	 width="220.949px" height="62.432px" viewBox="0 0 220.949 62.432" enable-background="new 0 0 220.949 62.432"
	 xml:space="preserve">
<g>
	<g>
		<path fill="#FFFFFF" d="M102.608,29l-1.44-4.272h-6.937L92.768,29h-1.92l5.832-16.802h2.064L104.576,29H102.608z M98.744,17.503
			c-0.36-1.104-0.864-2.616-1.032-3.312c-0.168,0.672-0.648,2.185-1.056,3.36l-1.849,5.473h5.784L98.744,17.503z"/>
		<path fill="#FFFFFF" d="M115.472,29v-1.536c-0.889,0.96-2.088,1.8-3.793,1.8c-2.52,0-4.512-1.92-4.512-6.36
			c0-4.464,2.112-6.769,4.752-6.769c1.584,0,2.664,0.672,3.553,1.681v-5.305l1.8-1.008V29H115.472z M115.472,19.591
			c-0.696-1.056-1.92-1.896-3.408-1.896c-2.089,0-3.12,1.8-3.12,5.185c0,3.168,1.199,4.824,3.191,4.824
			c1.345,0,2.448-0.721,3.337-1.824V19.591z"/>
		<path fill="#FFFFFF" d="M129.079,29v-1.536c-0.72,1.056-1.896,1.8-3.479,1.8c-2.665,0-4.417-1.56-4.417-5.185v-7.681h1.801v7.369
			c0,2.712,0.96,3.937,2.976,3.937c1.752,0,3.12-1.177,3.12-3.937v-7.369h1.801V29H129.079z"/>
		<path fill="#FFFFFF" d="M142.087,29v-1.536c-0.888,0.96-2.136,1.8-3.937,1.8c-1.968,0-4.032-0.983-4.032-4.032
			c0-2.832,2.328-4.032,4.824-4.032c1.272,0,2.4,0.312,3.145,0.72v-1.487c0-1.872-0.888-2.784-2.736-2.784
			c-1.32,0-2.4,0.359-3.433,0.96l-0.672-1.465c1.104-0.6,2.593-1.008,4.225-1.008c2.712,0,4.416,1.152,4.416,4.08V29H142.087z
			 M142.087,23.359c-0.816-0.456-1.704-0.72-3.24-0.72c-1.849,0-2.952,0.888-2.952,2.472c0,1.872,1.032,2.688,2.568,2.688
			c1.632,0,2.855-0.84,3.624-1.896V23.359z"/>
		<path fill="#FFFFFF" d="M155.695,29v-7.368c0-2.713-0.96-3.937-2.977-3.937c-1.752,0-3.12,1.176-3.12,3.937V29h-1.8V16.398h1.8
			v1.536c0.721-1.056,1.896-1.8,3.48-1.8c2.664,0,4.417,1.561,4.417,5.185V29H155.695z"/>
		<path fill="#FFFFFF" d="M168.631,29v-1.536c-0.888,0.96-2.136,1.8-3.937,1.8c-1.968,0-4.032-0.983-4.032-4.032
			c0-2.832,2.328-4.032,4.824-4.032c1.272,0,2.4,0.312,3.145,0.72v-1.487c0-1.872-0.888-2.784-2.736-2.784
			c-1.32,0-2.4,0.359-3.433,0.96l-0.672-1.465c1.104-0.6,2.593-1.008,4.225-1.008c2.712,0,4.416,1.152,4.416,4.08V29H168.631z
			 M168.631,23.359c-0.816-0.456-1.704-0.72-3.24-0.72c-1.849,0-2.952,0.888-2.952,2.472c0,1.872,1.032,2.688,2.568,2.688
			c1.632,0,2.856-0.84,3.624-1.896V23.359z"/>
		<path fill="#FFFFFF" d="M99.2,57.8v-1.536c-0.889,0.96-2.088,1.8-3.793,1.8c-2.52,0-4.512-1.92-4.512-6.36
			c0-4.464,2.112-6.769,4.752-6.769c1.584,0,2.664,0.672,3.553,1.681v-5.305l1.8-1.008V57.8H99.2z M99.2,48.391
			c-0.696-1.056-1.92-1.896-3.408-1.896c-2.089,0-3.12,1.8-3.12,5.185c0,3.168,1.199,4.824,3.191,4.824
			c1.345,0,2.448-0.721,3.337-1.824V48.391z"/>
		<path fill="#FFFFFF" d="M114.512,52.111h-8.4c0.168,2.688,1.44,4.393,3.505,4.393c1.464,0,2.328-0.433,3.479-1.2l0.841,1.296
			c-1.513,0.96-2.616,1.464-4.513,1.464c-2.305,0-5.112-1.68-5.112-6.624c0-4.009,2.208-6.505,5.208-6.505
			c3.288,0,5.064,2.593,5.064,6.192C114.584,51.56,114.561,51.823,114.512,52.111z M109.496,46.495
			c-1.872,0-3.169,1.344-3.385,4.152h6.793C112.76,48.199,111.704,46.495,109.496,46.495z"/>
		<path fill="#FFFFFF" d="M131.239,57.8h-2.064l-5.712-16.802h1.968l3.744,11.497c0.336,1.009,0.864,2.713,1.032,3.312
			c0.168-0.6,0.744-2.376,1.057-3.36l3.768-11.449h1.921L131.239,57.8z"/>
		<path fill="#FFFFFF" d="M149.744,52.111h-8.401c0.168,2.688,1.44,4.393,3.505,4.393c1.464,0,2.328-0.433,3.479-1.2l0.841,1.296
			c-1.513,0.96-2.616,1.464-4.513,1.464c-2.305,0-5.112-1.68-5.112-6.624c0-4.009,2.208-6.505,5.208-6.505
			c3.288,0,5.064,2.593,5.064,6.192C149.815,51.56,149.792,51.823,149.744,52.111z M144.728,46.495
			c-1.872,0-3.169,1.344-3.385,4.152h6.793C147.991,48.199,146.936,46.495,144.728,46.495z"/>
		<path fill="#FFFFFF" d="M159.607,47.071c-0.504-0.288-1.057-0.48-1.896-0.48c-1.752,0-2.736,1.416-2.736,3.816V57.8h-1.8V45.198
			h1.8v1.561c0.576-1.008,1.776-1.824,3.121-1.824c0.936,0,1.535,0.12,1.968,0.312L159.607,47.071z"/>
		<path fill="#FFFFFF" d="M170.167,57.8v-1.536c-0.888,0.96-2.136,1.8-3.937,1.8c-1.968,0-4.032-0.983-4.032-4.032
			c0-2.832,2.328-4.032,4.824-4.032c1.272,0,2.4,0.312,3.145,0.72v-1.487c0-1.872-0.888-2.784-2.736-2.784
			c-1.32,0-2.4,0.359-3.433,0.96l-0.672-1.465c1.104-0.6,2.593-1.008,4.225-1.008c2.712,0,4.416,1.152,4.416,4.08V57.8H170.167z
			 M170.167,52.159c-0.816-0.456-1.704-0.72-3.24-0.72c-1.849,0-2.952,0.888-2.952,2.472c0,1.872,1.032,2.688,2.568,2.688
			c1.632,0,2.855-0.84,3.624-1.896V52.159z"/>
		<path fill="#FFFFFF" d="M183.534,47.767c-0.912-0.815-1.752-1.271-3.023-1.271c-1.969,0-3.48,1.775-3.48,4.92
			c0,3.097,1.32,5.089,3.552,5.089c1.225,0,2.04-0.504,2.904-1.345l1.08,1.152c-1.056,1.08-2.28,1.752-4.056,1.752
			c-2.761,0-5.305-2.112-5.305-6.504c0-4.656,2.784-6.625,5.424-6.625c1.704,0,3.001,0.624,3.984,1.488L183.534,47.767z"/>
		<path fill="#FFFFFF" d="M194.19,47.071c-0.504-0.288-1.057-0.48-1.896-0.48c-1.752,0-2.736,1.416-2.736,3.816V57.8h-1.8V45.198
			h1.8v1.561c0.576-1.008,1.776-1.824,3.12-1.824c0.937,0,1.537,0.12,1.969,0.312L194.19,47.071z"/>
		<path fill="#FFFFFF" d="M205.351,57.8v-1.536c-0.72,1.056-1.896,1.8-3.479,1.8c-2.665,0-4.417-1.56-4.417-5.185v-7.681h1.801
			v7.369c0,2.712,0.96,3.937,2.976,3.937c1.752,0,3.12-1.177,3.12-3.937v-7.369h1.801V57.8H205.351z"/>
		<path fill="#FFFFFF" d="M210.438,57.8v-1.32l6.889-9.769h-6.336v-1.513h8.376v1.32l-6.889,9.77h6.889V57.8H210.438z"/>
	</g>
</g>
<g>
	<polygon stroke="#FFFFFF" stroke-width="2" stroke-linecap="round" stroke-linejoin="round" stroke-miterlimit="10" points="51,23 
		51,10 32,10 32,23 13,23 13,57 69,57 69,23 	"/>
	<g>
		<rect x="18" y="29" fill="#FFFFFF" width="5" height="8"/>
	</g>
	<g>
		<rect x="28" y="29" fill="#FFFFFF" width="5" height="8"/>
	</g>
	<g>
		<rect x="38" y="29" fill="#FFFFFF" width="6" height="8"/>
	</g>
	<g>
		<rect x="38" y="15" fill="#FFFFFF" width="6" height="8"/>
	</g>
	<g>
		<rect x="49" y="29" fill="#FFFFFF" width="5" height="8"/>
	</g>
	<g>
		<rect x="59" y="29" fill="#FFFFFF" width="5" height="8"/>
	</g>
	<g>
		<rect x="18" y="42" fill="#FFFFFF" width="5" height="7"/>
	</g>
	<g>
		<rect x="28" y="42" fill="#FFFFFF" width="5" height="7"/>
	</g>
	<g>
		<rect x="49" y="42" fill="#FFFFFF" width="5" height="7"/>
	</g>
	<g>
		<rect x="59" y="42" fill="#FFFFFF" width="5" height="7"/>
	</g>
	<rect x="37" y="41" fill="#FFFFFF" width="8" height="16"/>
	
		<line fill="none" stroke="#FFFFFF" stroke-width="2" stroke-linecap="round" stroke-linejoin="round" stroke-miterlimit="10" x1="1" y1="57" x2="81" y2="57"/>
	
		<line fill="none" stroke="#FFFFFF" stroke-width="2" stroke-linecap="round" stroke-linejoin="round" stroke-miterlimit="10" x1="41" y1="10" x2="41" y2="1"/>
	
		<line fill="none" stroke="#FFFFFF" stroke-width="2" stroke-linecap="round" stroke-linejoin="round" stroke-miterlimit="10" x1="32" y1="55" x2="50" y2="55"/>
</g>
</svg>
