<?xml version="1.0" encoding="utf-8"?>
<!-- Generator: Adobe Illustrator 15.1.0, SVG Export Plug-In . SVG Version: 6.00 Build 0)  -->
<!DOCTYPE svg PUBLIC "-//W3C//DTD SVG 1.1//EN" "http://www.w3.org/Graphics/SVG/1.1/DTD/svg11.dtd">
<svg version="1.1" id="Layer_1" xmlns="http://www.w3.org/2000/svg" xmlns:xlink="http://www.w3.org/1999/xlink" x="0px" y="0px"
	 width="207.831px" height="55.4px" viewBox="27.349 3.745 207.831 55.4" enable-background="new 27.349 3.745 207.831 55.4"
	 xml:space="preserve">
<g>
	<g>
		<g>
			<path fill="#FFFFFF" d="M82.381,24.144l-1.44-4.272h-6.937l-1.464,4.272h-1.92l5.832-16.802h2.064l5.832,16.802H82.381z
				 M78.517,12.647c-0.36-1.104-0.864-2.616-1.032-3.312c-0.168,0.672-0.648,2.185-1.056,3.36l-1.849,5.473h5.784L78.517,12.647z"/>
			<path fill="#FFFFFF" d="M94.044,13.416c-0.504-0.288-1.057-0.48-1.896-0.48c-1.752,0-2.736,1.416-2.736,3.816v7.393h-1.8V11.542
				h1.8v1.561c0.576-1.008,1.776-1.824,3.121-1.824c0.936,0,1.535,0.12,1.968,0.312L94.044,13.416z"/>
			<path fill="#FFFFFF" d="M105.036,14.111c-0.912-0.815-1.752-1.271-3.023-1.271c-1.969,0-3.48,1.775-3.48,4.92
				c0,3.097,1.32,5.089,3.552,5.089c1.225,0,2.04-0.504,2.904-1.345l1.08,1.152c-1.056,1.08-2.28,1.752-4.056,1.752
				c-2.761,0-5.305-2.112-5.305-6.504c0-4.656,2.784-6.625,5.424-6.625c1.705,0,3.001,0.624,3.984,1.488L105.036,14.111z"/>
			<path fill="#FFFFFF" d="M114.012,24.408c-3.072,0-5.424-2.28-5.424-6.552c0-4.272,2.448-6.577,5.521-6.577
				s5.424,2.208,5.424,6.48S117.084,24.408,114.012,24.408z M114.061,12.839c-2.185,0-3.648,1.656-3.648,4.968
				c0,3.312,1.464,5.041,3.648,5.041c2.184,0,3.672-1.729,3.672-5.041C117.733,14.496,116.244,12.839,114.061,12.839z"/>
			<path fill="#FFFFFF" d="M136.716,24.144v-1.536c-0.889,0.96-2.088,1.8-3.793,1.8c-2.52,0-4.512-1.92-4.512-6.36
				c0-4.464,2.112-6.769,4.752-6.769c1.584,0,2.664,0.672,3.553,1.681V7.655l1.8-1.008v17.497H136.716z M136.716,14.735
				c-0.696-1.056-1.92-1.896-3.408-1.896c-2.089,0-3.12,1.8-3.12,5.185c0,3.168,1.199,4.824,3.191,4.824
				c1.345,0,2.448-0.721,3.337-1.824V14.735z"/>
			<path fill="#FFFFFF" d="M152.029,18.456h-8.401c0.168,2.688,1.44,4.393,3.505,4.393c1.464,0,2.328-0.433,3.479-1.2l0.841,1.296
				c-1.513,0.96-2.616,1.464-4.513,1.464c-2.305,0-5.112-1.68-5.112-6.624c0-4.009,2.208-6.505,5.208-6.505
				c3.288,0,5.064,2.593,5.064,6.192C152.1,17.904,152.076,18.167,152.029,18.456z M147.012,12.839
				c-1.872,0-3.169,1.344-3.385,4.152h6.793C150.276,14.543,149.22,12.839,147.012,12.839z"/>
			<path fill="#FFFFFF" d="M35.774,42.215c-0.504-0.288-1.057-0.48-1.896-0.48c-1.752,0-2.736,1.416-2.736,3.816v7.393h-1.8V40.342
				h1.8v1.561c0.576-1.008,1.776-1.824,3.12-1.824c0.937,0,1.537,0.12,1.969,0.312L35.774,42.215z"/>
			<path fill="#FFFFFF" d="M46.333,52.944v-1.536c-0.888,0.96-2.136,1.8-3.937,1.8c-1.968,0-4.032-0.983-4.032-4.032
				c0-2.832,2.328-4.032,4.824-4.032c1.272,0,2.4,0.312,3.145,0.72v-1.487c0-1.872-0.888-2.784-2.736-2.784
				c-1.32,0-2.4,0.359-3.433,0.96l-0.672-1.465c1.104-0.6,2.593-1.008,4.225-1.008c2.712,0,4.416,1.152,4.416,4.08v8.785H46.333z
				 M46.333,47.303c-0.816-0.456-1.704-0.72-3.24-0.72c-1.849,0-2.952,0.888-2.952,2.472c0,1.872,1.032,2.688,2.568,2.688
				c1.632,0,2.856-0.84,3.624-1.896V47.303z"/>
			<path fill="#FFFFFF" d="M55.573,57.384h-1.8L55.5,52.8l-4.488-12.458h1.896l3.072,9.146l0.432,1.296l0.433-1.272l3.096-9.169
				h1.896L55.573,57.384z"/>
			<path fill="#FFFFFF" d="M69.54,53.208c-3.072,0-5.424-2.28-5.424-6.552c0-4.272,2.448-6.577,5.521-6.577s5.424,2.208,5.424,6.48
				S72.613,53.208,69.54,53.208z M69.589,41.639c-2.185,0-3.648,1.656-3.648,4.968c0,3.312,1.464,5.041,3.648,5.041
				c2.184,0,3.672-1.729,3.672-5.041C73.261,43.295,71.773,41.639,69.589,41.639z"/>
			<path fill="#FFFFFF" d="M81.853,53.208c-1.729,0-3.24-0.647-4.44-1.607l1.056-1.32c1.009,0.888,2.185,1.392,3.433,1.392
				c1.729,0,2.544-0.72,2.544-1.943c0-1.032-0.744-1.608-2.976-2.568c-2.521-1.08-3.577-1.849-3.577-3.864
				c0-1.921,1.656-3.217,3.937-3.217c1.729,0,3.072,0.552,4.032,1.345l-1.008,1.319c-0.984-0.768-1.8-1.128-3.145-1.128
				c-1.319,0-2.088,0.648-2.088,1.561c0,1.056,0.648,1.488,2.784,2.448c2.376,1.08,3.769,1.775,3.769,4.032
				C86.173,52.127,84.036,53.208,81.853,53.208z"/>
			<path fill="#FFFFFF" d="M98.867,57.577l-0.575-1.368c4.2-0.12,5.16-1.225,5.16-4.152v-0.648c-0.889,0.96-2.088,1.8-3.793,1.8
				c-2.52,0-4.512-1.92-4.512-6.36c0-4.464,2.112-6.769,4.752-6.769c1.584,0,2.664,0.672,3.553,1.681v-1.417h1.8v11.474
				C105.252,55.608,103.548,57.432,98.867,57.577z M103.452,43.535c-0.696-1.056-1.92-1.896-3.408-1.896
				c-2.089,0-3.12,1.8-3.12,5.185c0,3.168,1.199,4.824,3.191,4.824c1.345,0,2.448-0.721,3.337-1.824V43.535z"/>
			<path fill="#FFFFFF" d="M116.46,52.944v-1.536c-0.888,0.96-2.136,1.8-3.937,1.8c-1.968,0-4.032-0.983-4.032-4.032
				c0-2.832,2.328-4.032,4.824-4.032c1.272,0,2.4,0.312,3.145,0.72v-1.487c0-1.872-0.888-2.784-2.736-2.784
				c-1.32,0-2.4,0.359-3.433,0.96l-0.672-1.465c1.104-0.6,2.593-1.008,4.225-1.008c2.712,0,4.416,1.152,4.416,4.08v8.785H116.46z
				 M116.46,47.303c-0.816-0.456-1.704-0.72-3.24-0.72c-1.849,0-2.952,0.888-2.952,2.472c0,1.872,1.032,2.688,2.568,2.688
				c1.632,0,2.856-0.84,3.624-1.896V47.303z"/>
			<path fill="#FFFFFF" d="M136.813,52.944v-7.368c0-2.881-0.889-3.937-2.713-3.937c-1.704,0-2.808,1.151-2.808,3.937v7.368h-1.801
				v-7.368c0-2.881-0.96-3.937-2.712-3.937c-1.729,0-2.809,1.151-2.809,3.937v7.368h-1.8V40.342h1.8v1.536
				c0.648-1.08,1.704-1.8,3.192-1.8c1.776,0,2.856,0.96,3.456,2.16c0.744-1.2,1.776-2.16,3.816-2.16
				c2.568,0,4.177,1.513,4.177,5.185v7.681H136.813z"/>
			<path fill="#FFFFFF" d="M149.748,52.944v-1.536c-0.888,0.96-2.136,1.8-3.937,1.8c-1.968,0-4.032-0.983-4.032-4.032
				c0-2.832,2.328-4.032,4.824-4.032c1.272,0,2.4,0.312,3.145,0.72v-1.487c0-1.872-0.888-2.784-2.736-2.784
				c-1.32,0-2.4,0.359-3.433,0.96l-0.672-1.465c1.104-0.6,2.593-1.008,4.225-1.008c2.712,0,4.416,1.152,4.416,4.08v8.785H149.748z
				 M149.748,47.303c-0.816-0.456-1.704-0.72-3.24-0.72c-1.849,0-2.952,0.888-2.952,2.472c0,1.872,1.032,2.688,2.568,2.688
				c1.632,0,2.855-0.84,3.624-1.896V47.303z"/>
		</g>
	</g>
	<g>
		<g>
			
				<line fill="#004794" stroke="#FFFFFF" stroke-width="2" stroke-linecap="round" stroke-linejoin="round" stroke-miterlimit="10" x1="162.18" y1="58.145" x2="179.18" y2="58.145"/>
		</g>
		<g>
			
				<line fill="#004794" stroke="#FFFFFF" stroke-width="2" stroke-linecap="round" stroke-linejoin="round" stroke-miterlimit="10" x1="217.18" y1="58.145" x2="234.18" y2="58.145"/>
		</g>
		<path stroke="#FFFFFF" stroke-width="2" stroke-linecap="round" stroke-linejoin="round" stroke-miterlimit="10" d="
			M180.208,13.145h-1.646c-0.854,0-1.67,0.31-2.265,0.922l-7.832,7.645c-0.571,0.589-1.286,1.359-1.286,2.18v34.254h7V25.17
			l5.445-6.025h37.223l5.332,6.025v32.975h7V23.891c0-0.82-0.467-1.608-1.038-2.197l-7.511-7.627
			c-0.595-0.612-1.485-0.922-2.338-0.922h-2.028H180.208z"/>
		<rect x="212.18" y="15.145" fill="#FFFFFF" width="3" height="2"/>
		<rect x="206.18" y="15.145" fill="#FFFFFF" width="4" height="2"/>
	</g>
</g>
</svg>
