<?xml version="1.0" encoding="utf-8"?>
<!-- Generator: Adobe Illustrator 15.1.0, SVG Export Plug-In . SVG Version: 6.00 Build 0)  -->
<!DOCTYPE svg PUBLIC "-//W3C//DTD SVG 1.1//EN" "http://www.w3.org/Graphics/SVG/1.1/DTD/svg11.dtd">
<svg version="1.1" id="Layer_1" xmlns="http://www.w3.org/2000/svg" xmlns:xlink="http://www.w3.org/1999/xlink" x="0px" y="0px"
	 width="287px" height="121.898px" viewBox="0 0 287 121.898" enable-background="new 0 0 287 121.898" xml:space="preserve">
<polygon opacity="0.9" fill="#FFFFFF" points="287,9.449 152.949,9.449 143.051,-0.449 133.15,9.449 0,9.449 0,121.449 287,121.449 
	"/>
<g>
	<path d="M26.486,31.118v18.869h-2.34V31.118h-6.18v-2.13h14.699v2.13H26.486z"/>
	<path d="M48.536,42.878h-10.5c0.21,3.359,1.801,5.489,4.38,5.489c1.83,0,2.91-0.54,4.351-1.5l1.05,1.62
		c-1.891,1.2-3.271,1.83-5.64,1.83c-2.88,0-6.39-2.1-6.39-8.279c0-5.01,2.76-8.13,6.51-8.13c4.109,0,6.329,3.239,6.329,7.739
		C48.626,42.187,48.596,42.517,48.536,42.878z M42.267,35.857c-2.34,0-3.96,1.681-4.23,5.19h8.49
		C46.347,37.987,45.026,35.857,42.267,35.857z"/>
	<path d="M60.866,36.578c-0.63-0.36-1.319-0.601-2.37-0.601c-2.189,0-3.419,1.771-3.419,4.771v9.239h-2.25V34.238h2.25v1.949
		c0.72-1.26,2.22-2.279,3.899-2.279c1.17,0,1.92,0.149,2.46,0.39L60.866,36.578z"/>
	<path d="M83.336,49.987v-9.21c0-3.6-1.109-4.92-3.39-4.92c-2.13,0-3.51,1.44-3.51,4.92v9.21h-2.25v-9.21c0-3.6-1.2-4.92-3.39-4.92
		c-2.16,0-3.51,1.44-3.51,4.92v9.21h-2.25V34.238h2.25v1.92c0.81-1.351,2.13-2.25,3.989-2.25c2.22,0,3.57,1.2,4.32,2.699
		c0.93-1.499,2.22-2.699,4.77-2.699c3.21,0,5.22,1.89,5.22,6.479v9.6H83.336z"/>
	<path d="M91.796,31.418c-0.93,0-1.649-0.72-1.649-1.59c0-0.9,0.72-1.62,1.649-1.62c0.84,0,1.561,0.72,1.561,1.62
		C93.356,30.698,92.636,31.418,91.796,31.418z M90.626,49.987V34.238h2.25v15.749H90.626z"/>
	<path d="M107.876,49.987v-9.21c0-3.39-1.2-4.92-3.72-4.92c-2.189,0-3.899,1.471-3.899,4.92v9.21h-2.25V34.238h2.25v1.92
		c0.899-1.32,2.369-2.25,4.35-2.25c3.33,0,5.52,1.949,5.52,6.479v9.6H107.876z"/>
	<path d="M124.045,49.987v-1.92c-1.11,1.2-2.67,2.25-4.92,2.25c-2.46,0-5.04-1.23-5.04-5.04c0-3.54,2.91-5.04,6.03-5.04
		c1.59,0,3,0.391,3.93,0.9v-1.86c0-2.34-1.11-3.479-3.42-3.479c-1.649,0-3,0.45-4.29,1.2l-0.84-1.83c1.38-0.75,3.24-1.26,5.28-1.26
		c3.39,0,5.52,1.439,5.52,5.1v10.979H124.045z M124.045,42.937c-1.02-0.57-2.13-0.899-4.05-0.899c-2.31,0-3.689,1.109-3.689,3.09
		c0,2.34,1.289,3.359,3.209,3.359c2.04,0,3.57-1.05,4.53-2.37V42.937z"/>
	<path d="M131.335,49.987V29.378l2.25-1.26v21.869H131.335z"/>
	<path d="M156.055,49.987v-1.92c-1.109,1.2-2.609,2.25-4.739,2.25c-3.15,0-5.64-2.4-5.64-7.95c0-5.579,2.64-8.459,5.939-8.459
		c1.979,0,3.33,0.84,4.439,2.1v-6.63l2.25-1.26v21.869H156.055z M156.055,38.227c-0.87-1.319-2.399-2.37-4.26-2.37
		c-2.609,0-3.899,2.25-3.899,6.48c0,3.96,1.5,6.029,3.989,6.029c1.681,0,3.061-0.899,4.17-2.279V38.227z"/>
	<path d="M175.194,42.878h-10.5c0.21,3.359,1.801,5.489,4.38,5.489c1.83,0,2.91-0.54,4.351-1.5l1.05,1.62
		c-1.891,1.2-3.271,1.83-5.64,1.83c-2.88,0-6.39-2.1-6.39-8.279c0-5.01,2.76-8.13,6.51-8.13c4.109,0,6.329,3.239,6.329,7.739
		C175.284,42.187,175.254,42.517,175.194,42.878z M168.925,35.857c-2.34,0-3.96,1.681-4.23,5.19h8.49
		C173.005,37.987,171.685,35.857,168.925,35.857z"/>
	<path d="M192.233,30.248c-0.93,0-1.62,0.33-1.62,1.65v2.34h3.09v1.89h-3.09v13.859h-2.249V36.128h-2.16v-1.89h2.16v-2.16
		c0-2.82,1.529-3.87,3.72-3.87c0.899,0,1.439,0.09,1.979,0.271v2.13C193.554,30.368,192.953,30.248,192.233,30.248z"/>
	<path d="M198.113,49.987V29.378l2.25-1.26v21.869H198.113z"/>
	<path d="M215.273,49.987v-1.92c-0.9,1.32-2.37,2.25-4.35,2.25c-3.33,0-5.52-1.95-5.52-6.479v-9.6h2.249v9.209
		c0,3.391,1.2,4.92,3.721,4.92c2.189,0,3.899-1.47,3.899-4.92v-9.209h2.25v15.749H215.273z"/>
	<path d="M223.823,31.418c-0.93,0-1.649-0.72-1.649-1.59c0-0.9,0.72-1.62,1.649-1.62c0.84,0,1.561,0.72,1.561,1.62
		C225.384,30.698,224.663,31.418,223.823,31.418z M222.653,49.987V34.238h2.25v15.749H222.653z"/>
	<path d="M239.572,49.987v-1.92c-1.109,1.2-2.609,2.25-4.739,2.25c-3.15,0-5.64-2.4-5.64-7.95c0-5.579,2.64-8.459,5.939-8.459
		c1.979,0,3.33,0.84,4.439,2.1v-6.63l2.25-1.26v21.869H239.572z M239.572,38.227c-0.87-1.319-2.399-2.37-4.26-2.37
		c-2.609,0-3.899,2.25-3.899,6.48c0,3.96,1.5,6.029,3.989,6.029c1.681,0,3.061-0.899,4.17-2.279V38.227z"/>
	<path d="M252.742,50.317c-3.84,0-6.779-2.85-6.779-8.189s3.06-8.22,6.899-8.22s6.779,2.76,6.779,8.1S256.582,50.317,252.742,50.317
		z M252.802,35.857c-2.729,0-4.56,2.07-4.56,6.21s1.83,6.3,4.56,6.3c2.73,0,4.59-2.16,4.59-6.3S255.532,35.857,252.802,35.857z"/>
	<path d="M268.133,50.317c-2.16,0-4.05-0.811-5.55-2.01l1.32-1.65c1.26,1.11,2.729,1.74,4.289,1.74c2.16,0,3.181-0.9,3.181-2.43
		c0-1.29-0.931-2.01-3.721-3.21c-3.149-1.351-4.47-2.311-4.47-4.83c0-2.399,2.07-4.02,4.92-4.02c2.16,0,3.84,0.689,5.04,1.68
		l-1.26,1.65c-1.23-0.96-2.25-1.41-3.93-1.41c-1.65,0-2.61,0.81-2.61,1.949c0,1.32,0.81,1.86,3.479,3.061
		c2.971,1.35,4.71,2.22,4.71,5.04C273.532,48.968,270.862,50.317,268.133,50.317z"/>
	<path d="M20.597,99.187v-28.7h5.74v28.7H20.597z"/>
	<path d="M34.127,99.187v-28.7h19.926v5.617H39.866v4.961h8.241v5.576h-8.241v6.929h14.802v5.617H34.127z"/>
	<path d="M78.899,99.187L68.362,83.525c-0.697-1.066-1.641-2.501-2.01-3.239c0,1.066,0.082,4.674,0.082,6.273v12.628h-5.657v-28.7
		h5.494l10.168,15.17c0.696,1.066,1.64,2.501,2.009,3.239c0-1.066-0.082-4.674-0.082-6.273V70.487h5.658v28.7H78.899z"/>
	<path d="M102.351,99.638c-7.831,0-12.464-6.068-12.464-14.802c0-8.732,4.633-14.801,12.464-14.801s12.465,6.068,12.465,14.801
		C114.815,93.57,110.182,99.638,102.351,99.638z M102.351,75.735c-4.633,0-6.56,3.977-6.56,9.102c0,5.126,1.927,9.103,6.56,9.103
		c4.634,0,6.561-3.977,6.561-9.103C108.911,79.712,106.984,75.735,102.351,75.735z"/>
	<path d="M134.412,99.187h-5.576l-10.209-28.7h6.355l5.412,16.605c0.533,1.599,1.106,3.689,1.353,4.715
		c0.246-1.066,0.779-3.034,1.312-4.715l5.289-16.605h6.272L134.412,99.187z"/>
	<path d="M169.057,99.187l-2.255-6.396h-10.496l-2.255,6.396h-6.15l10.988-28.7h5.576l10.906,28.7H169.057z M162.989,82.132
		c-0.574-1.682-1.148-3.403-1.436-4.47c-0.287,1.066-0.86,2.788-1.435,4.47l-1.846,5.207h6.561L162.989,82.132z"/>
</g>
</svg>
